<svg version="1.1" id="Layer_1" xmlns="http://www.w3.org/2000/svg" xmlns:xlink="http://www.w3.org/1999/xlink" x="0px" y="0px"
	 width="100%" viewBox="0 0 880 1024" enable-background="new 0 0 880 1024" xml:space="preserve">
<path fill="#000000" opacity="1.000000" stroke="none" 
	d="
M507.695068,472.508087 
	C490.418427,476.009857 479.140839,487.455109 467.879425,499.289398 
	C442.573486,525.882629 432.366058,559.318420 424.062592,593.722839 
	C418.132843,618.292236 416.915649,643.406799 415.268829,668.474304 
	C414.657562,677.778625 414.057709,687.084045 413.542603,696.393982 
	C413.382324,699.290955 413.517670,702.204285 413.867706,705.227356 
	C421.955292,683.117065 435.605499,665.249817 453.883240,650.768250 
	C467.280884,640.153320 482.007568,631.755676 497.324799,624.287048 
	C522.361450,612.079102 545.390015,596.942078 565.084534,577.073853 
	C585.305908,556.674133 598.158691,532.552795 601.414734,503.753357 
	C602.278992,496.109863 601.946228,488.470856 599.932983,480.957977 
	C599.526611,479.441223 598.362671,477.948273 599.195496,476.226349 
	C600.632019,475.534027 600.948486,476.680450 601.416809,477.494446 
	C616.344177,503.440125 626.832825,530.925842 630.951294,560.743347 
	C636.910950,603.890747 624.457092,641.279785 596.653381,674.260254 
	C578.318054,696.009460 557.070374,714.732056 536.271057,733.948792 
	C515.460938,753.175415 494.251892,772.127808 479.300140,796.595764 
	C463.930115,821.748169 457.077454,849.194641 459.400421,878.716125 
	C460.033966,886.767273 462.571564,893.928223 467.713989,900.642883 
	C492.212830,932.631470 519.089966,962.335144 549.725342,988.565002 
	C553.937927,992.171997 557.288269,996.533875 560.731812,1000.813965 
	C561.730469,1002.055176 563.022644,1003.340942 562.191467,1005.506897 
	C560.015503,1006.541992 558.534180,1004.835327 557.052979,1003.752197 
	C524.564941,979.996826 495.523376,952.775269 471.956177,919.917175 
	C459.427856,902.449951 446.309021,885.391968 436.307373,866.271729 
	C433.146973,860.229980 429.927368,854.106018 427.774536,847.671753 
	C421.408844,828.646545 410.791107,811.592163 403.183533,793.130920 
	C392.751740,767.816223 372.018738,755.067871 346.199585,749.351196 
	C345.387878,749.171509 344.564209,749.018066 343.737823,748.937256 
	C340.550049,748.625488 337.172546,745.710144 334.237915,748.344666 
	C330.055267,752.099548 328.035889,757.359985 326.518066,762.688477 
	C325.949097,764.685913 327.918457,765.538879 329.126160,766.582153 
	C331.724579,768.826782 333.257965,771.507385 332.226532,774.951721 
	C331.176575,778.457764 328.081299,779.607544 324.899780,780.145264 
	C322.793610,780.501343 320.560089,780.451965 318.424652,780.214478 
	C313.927521,779.714294 309.924286,775.678284 310.123688,771.610046 
	C310.345215,767.090210 312.871582,764.027222 317.431030,763.436523 
	C320.770660,763.003845 322.180756,761.257629 323.308075,758.309021 
	C324.827942,754.333740 326.959442,750.592224 328.873718,746.657410 
	C320.814087,745.977539 308.116669,754.271973 305.515930,761.565735 
	C304.823547,763.507446 305.895752,764.735840 306.747925,766.133362 
	C309.509186,770.661621 309.905304,775.145996 306.691620,779.680725 
	C303.574890,784.078613 297.244507,786.376831 292.578064,784.689575 
	C288.275421,783.133850 285.549042,778.062012 286.211182,772.845276 
	C287.075287,766.036865 290.896210,761.004028 296.200073,760.824524 
	C299.659698,760.707336 301.730591,759.369629 303.565094,756.723938 
	C307.718811,750.733521 313.215668,746.252014 319.800690,743.437378 
	C319.531647,741.322998 318.205261,741.419250 317.103760,741.331604 
	C307.260254,740.548706 297.838898,741.846863 289.105133,746.841064 
	C286.780945,748.170166 285.344421,749.542847 285.210999,752.566711 
	C284.851166,760.721252 277.267242,768.398621 269.217743,769.240845 
	C265.130005,769.668579 261.486908,768.663452 259.084137,765.169800 
	C256.805908,761.857422 257.177277,758.169739 258.705170,754.666504 
	C262.695923,745.516479 271.636658,741.596924 281.563080,744.674988 
	C283.086151,745.147217 284.121643,744.698608 285.273285,743.999939 
	C292.535095,739.594177 300.453125,737.277710 310.085632,736.651550 
	C302.294952,733.972168 295.596436,731.652100 288.884705,729.370850 
	C287.060516,728.750793 285.606415,728.915588 283.951202,730.440063 
	C277.846863,736.062561 270.772614,736.364197 263.522034,733.048279 
	C259.288208,731.112061 256.689026,727.594788 256.878754,722.763733 
	C257.056793,718.230896 260.066315,715.614746 264.010468,713.984253 
	C273.182220,710.192688 281.537933,713.323425 286.542511,722.318481 
	C287.003052,723.146240 287.699524,724.155762 288.507111,724.429321 
	C297.322296,727.415100 305.793579,731.511597 315.131470,732.822449 
	C315.569977,732.884033 316.053040,732.628296 316.552277,732.511719 
	C316.543488,730.592834 314.944855,730.001953 313.883667,729.073853 
	C309.455841,725.201233 305.627991,720.798767 302.638489,715.760315 
	C300.577606,712.286926 298.496552,709.474792 294.318451,707.887146 
	C289.043762,705.882935 286.699951,698.705811 287.803925,691.386047 
	C288.752075,685.099121 293.404907,679.150085 298.469055,678.060730 
	C303.112762,677.061829 306.287964,679.415649 308.169647,683.331543 
	C311.825653,690.940002 311.071228,698.375488 305.702972,704.848633 
	C303.549500,707.445374 303.657440,709.202820 305.185974,711.830994 
	C310.895233,721.647400 319.138062,728.718323 328.888458,734.201416 
	C330.305389,734.998230 331.846161,735.771729 333.644440,735.280945 
	C334.646393,733.903320 333.316437,733.140442 332.774384,732.271301 
	C328.346100,725.170288 326.119568,717.412415 325.911926,709.090942 
	C325.858673,706.957764 325.396149,705.342896 323.713287,703.846436 
	C319.620514,700.207275 319.775360,695.706421 321.643097,691.011963 
	C323.565033,686.181274 326.828400,682.821411 332.144135,682.117493 
	C337.164154,681.452698 341.923340,685.114685 342.604797,691.344055 
	C343.189331,696.687744 344.416901,700.694031 349.841522,702.737427 
	C351.235382,703.262512 352.321869,704.933228 353.260529,706.279297 
	C356.998901,711.640198 355.520020,715.761108 349.013916,716.566589 
	C344.360046,717.142700 343.333801,719.556396 343.061890,723.473816 
	C342.343201,733.828491 346.479706,740.106689 356.114471,743.457031 
	C376.462006,750.532532 393.750305,761.842957 406.020538,779.985229 
	C406.574005,780.803589 407.228851,781.553345 408.290894,782.919739 
	C409.433167,777.908386 407.993317,773.578003 407.449463,769.416138 
	C403.046356,735.719543 403.593292,701.938721 405.686401,668.174988 
	C406.918518,648.299377 402.339386,630.270020 391.889832,613.489502 
	C386.786316,605.294067 382.547302,596.547729 376.326843,589.070801 
	C368.739044,579.950256 359.540009,573.858887 347.149017,574.294434 
	C335.367310,574.708496 327.551697,581.989075 320.761810,590.454651 
	C306.217346,608.588623 316.268890,626.950623 333.790344,636.035889 
	C340.360016,639.442444 348.233826,635.357117 351.336060,628.085327 
	C354.388306,620.930664 352.115112,615.217529 344.820984,611.677673 
	C343.353912,610.965576 341.601685,610.746521 340.384308,609.056396 
	C341.762329,606.880249 343.948364,607.101013 346.014648,607.290710 
	C355.292053,608.142822 361.115784,616.660889 358.923096,626.088867 
	C355.698425,639.954163 340.558258,646.869690 327.954163,640.234375 
	C314.094086,632.937866 304.920319,614.270447 307.830170,599.284668 
	C311.190338,581.979736 325.318726,568.558960 342.012024,566.665100 
	C358.613495,564.781677 370.760162,572.296570 379.868164,585.214661 
	C389.051727,598.239990 398.877838,610.851196 406.717896,625.529053 
	C409.142090,615.097351 409.048279,605.430176 405.621033,596.019531 
	C403.541443,590.309326 402.573181,584.427246 401.803406,578.491394 
	C400.093079,565.302979 395.844757,553.269043 386.627930,543.331482 
	C383.884613,540.373657 382.031311,536.794189 380.140503,533.273560 
	C376.662628,526.797852 372.710022,520.654663 368.192810,514.842163 
	C366.164398,512.232117 364.098267,509.417328 363.009064,506.354156 
	C359.373901,496.131134 350.798615,489.998322 344.357239,482.216522 
	C342.785034,482.923950 343.027191,484.081116 342.902740,484.992035 
	C340.882660,499.774170 333.879791,512.169617 322.266327,520.941284 
	C312.040588,528.664795 306.284058,537.734863 306.774078,550.401978 
	C307.373260,565.889343 288.868561,580.775757 272.973816,581.343750 
	C266.270569,581.583313 259.647919,581.202515 253.211533,579.171387 
	C243.931381,576.242859 237.658691,570.411926 235.535461,560.636841 
	C235.430206,560.152222 235.278641,559.668640 235.075470,559.217590 
	C234.944641,558.927002 234.679962,558.696777 234.240738,558.144714 
	C231.708633,559.446777 229.127808,560.825317 226.503021,562.114319 
	C217.399445,566.585083 208.036438,566.970459 199.039536,562.399780 
	C187.206329,556.388123 175.071365,551.795410 161.803314,550.107971 
	C155.718552,549.334106 151.156616,545.456787 148.301926,539.967529 
	C146.771149,537.023987 145.218964,533.982666 144.394287,530.799500 
	C140.589279,516.112671 134.417542,502.645630 125.491150,490.305420 
	C119.473389,481.986115 115.244041,472.769348 115.542114,462.063477 
	C115.979546,446.352753 126.256775,434.569336 141.734802,432.160980 
	C142.542343,432.035309 143.356232,431.950500 144.458542,431.809418 
	C144.150009,429.628937 142.447632,428.682251 141.327545,427.433838 
	C129.197433,413.913788 123.120209,398.554565 126.670143,380.172333 
	C128.096390,372.786957 132.010986,366.974670 137.754608,362.303619 
	C142.839584,358.168182 148.459229,354.795410 154.627548,352.707306 
	C164.024384,349.526337 170.250839,343.413391 175.074722,334.804047 
	C183.840027,319.160217 197.070053,309.117615 215.175827,306.425385 
	C225.816315,304.843262 235.293243,307.664307 243.487549,314.691040 
	C244.594894,315.640625 245.478134,316.992493 247.145355,316.985474 
	C248.480637,316.413910 248.474258,315.125061 248.862885,314.067810 
	C253.955704,300.213135 265.754944,294.226257 279.954102,298.389801 
	C291.679688,301.828033 300.442810,309.244141 307.191528,319.193481 
	C309.713654,322.911743 312.120117,326.731476 314.272980,330.672302 
	C318.604309,338.600739 325.105530,343.482727 333.784515,345.868378 
	C341.322693,347.940460 348.963318,349.956146 354.970215,355.474854 
	C365.063171,364.747467 370.719696,375.976562 370.137817,389.945587 
	C369.601654,402.817810 367.589935,415.484863 363.628143,427.717834 
	C359.800873,439.535461 352.215302,449.104858 343.596771,457.826172 
	C341.741791,459.703278 340.697601,461.384430 341.806580,463.926849 
	C341.872620,464.078247 341.932343,464.244293 341.942078,464.406708 
	C342.383881,471.795105 344.803894,477.374054 351.977570,481.455872 
	C358.465057,485.147247 362.207275,492.303192 365.800049,498.908905 
	C372.373779,510.995422 380.545959,521.877808 389.801361,532.002625 
	C400.607788,543.824158 405.884918,557.801941 406.340546,573.781372 
	C406.527008,580.319336 408.269714,586.579468 411.569763,592.569275 
	C413.298828,591.748413 413.053986,590.015564 413.389709,588.800964 
	C419.718231,565.905151 428.242126,543.815552 439.886780,523.164307 
	C446.529388,511.383911 449.226044,498.819427 451.974487,485.948700 
	C455.535126,469.274597 452.399597,453.780914 444.766449,439.100891 
	C438.415466,426.886688 428.630402,418.772156 414.195740,417.977112 
	C403.177826,417.370300 393.846710,421.573364 388.023468,430.721130 
	C380.067017,443.219910 374.889526,456.887695 376.193176,472.244812 
	C377.321320,485.534851 392.965515,498.318909 406.214722,496.631256 
	C412.727905,495.801636 417.589600,490.059357 419.146118,481.357727 
	C421.544952,467.946899 414.968689,459.239838 401.699646,458.223907 
	C401.109558,458.178741 400.538940,457.879242 399.871582,457.670776 
	C404.205414,451.647095 414.056396,452.223145 419.812195,458.528168 
	C424.109253,463.235199 425.435791,469.007629 425.900604,475.083679 
	C427.029694,489.843262 415.762817,504.070587 403.018494,503.039337 
	C391.582153,502.113922 381.763367,496.985565 375.429657,487.118774 
	C366.694641,473.511169 367.090607,458.732147 371.421509,443.789246 
	C374.930695,431.681580 381.275543,421.638184 392.693756,415.389252 
	C407.067230,407.523010 424.392334,409.208466 436.228577,420.623291 
	C451.318420,435.175934 460.085876,452.874054 460.356720,474.237335 
	C460.406921,478.196655 460.363892,482.157135 460.363892,487.118744 
	C464.826691,481.439453 467.627289,475.822357 470.558350,470.353760 
	C481.684937,449.594513 490.320770,427.740753 497.800446,405.463470 
	C501.369843,394.832458 497.924591,385.032532 491.303772,376.429596 
	C483.327972,366.066010 472.134460,360.107391 460.536499,354.822418 
	C443.679260,347.140808 425.788361,342.221191 408.591614,335.452606 
	C376.887146,322.973907 352.344604,302.378784 338.430969,270.836456 
	C327.942139,247.058258 327.874847,222.957504 340.022858,199.454208 
	C341.146210,197.280853 342.205017,193.350052 345.287109,194.469559 
	C348.758057,195.730316 346.314240,199.204376 345.688904,201.480484 
	C339.646240,223.474014 338.737762,245.211655 348.697083,266.407593 
	C361.234650,293.090637 381.847656,311.517090 408.289459,323.711121 
	C426.588654,332.150085 446.054718,337.858063 463.968658,347.227081 
	C475.102631,353.050140 485.658600,359.611023 493.603271,369.689941 
	C497.917755,375.163452 500.451904,381.423065 502.450195,388.106873 
	C510.483154,361.598907 508.559326,336.276611 495.455750,311.729523 
	C488.329865,298.380402 481.738495,284.688721 477.992767,269.864960 
	C476.562988,264.206482 475.899231,258.449646 475.681244,251.650269 
	C464.192261,260.643127 451.639282,261.263184 438.658020,259.128510 
	C431.274200,257.914307 423.870880,256.698029 416.593658,254.984375 
	C405.841003,252.452271 395.127563,252.841904 384.374023,254.536179 
	C364.118866,257.727509 351.220947,244.283447 355.125580,223.949738 
	C356.422150,217.197876 358.819275,210.820175 361.887146,204.683044 
	C364.944672,198.566574 368.405304,192.690033 372.847321,186.619736 
	C365.888031,186.095398 359.434265,185.317657 353.349731,182.616211 
	C337.176636,175.435577 327.934265,163.083328 325.922241,145.613998 
	C325.198273,139.328018 327.478271,133.443756 331.363617,128.374191 
	C333.286499,125.865234 335.146820,123.182007 337.540344,121.181908 
	C348.215851,112.261330 350.098755,100.594742 347.300385,88.066467 
	C343.236298,69.871254 350.995300,57.405521 365.324646,47.788898 
	C382.055847,36.560360 397.466156,36.928596 415.126831,48.733585 
	C417.103790,47.363777 416.974396,44.976028 417.635986,43.044823 
	C422.870087,27.766960 434.657288,20.707222 450.289978,24.185312 
	C460.141571,26.377174 469.610748,26.208649 479.292480,23.131964 
	C488.525787,20.197783 498.044281,18.254435 507.756409,21.371948 
	C524.066345,26.607338 531.261353,43.233486 529.910645,60.781910 
	C528.998657,72.631554 526.563904,84.120361 522.320190,95.676697 
	C526.680054,96.113846 530.489990,94.826561 534.322632,94.530197 
	C556.518127,92.813927 569.000122,117.363152 563.959167,132.986404 
	C561.819397,139.617981 559.539307,146.437943 562.949097,153.399094 
	C564.779297,157.135498 566.873840,160.744034 568.657776,164.501099 
	C572.033508,171.610672 573.397278,179.005875 571.410522,186.809174 
	C569.765442,193.270386 565.686218,197.578354 559.697144,200.216797 
	C555.094055,202.244644 550.141907,203.082565 545.318115,204.353165 
	C537.821960,206.327637 531.545776,210.077164 526.966492,216.500916 
	C523.486877,221.382111 520.040649,226.312012 516.205505,230.908081 
	C512.173157,235.740494 507.068237,239.168655 500.674194,240.211334 
	C495.480225,241.058319 491.473389,238.171051 487.247559,235.449326 
	C484.697632,239.431549 482.291229,243.181686 479.893463,246.937302 
	C478.571838,249.007431 479.356964,251.132095 479.772675,253.235748 
	C481.624237,262.606049 484.958405,271.456329 488.922546,280.124695 
	C495.753510,295.061951 504.096222,309.283173 510.024445,326.249207 
	C515.113586,309.378662 523.722412,295.926605 532.798950,282.838287 
	C546.107849,263.646973 564.383850,251.705582 587.463013,247.301132 
	C593.729187,246.105301 599.893921,246.788269 605.645752,249.012039 
	C620.259766,254.662094 632.140137,263.645782 635.683716,279.806122 
	C638.482727,292.570984 633.412903,303.820740 625.590942,313.637054 
	C615.849060,325.862885 603.744568,333.728729 587.186279,331.414917 
	C571.850464,329.271912 564.138611,316.868927 569.037537,302.234375 
	C571.846619,293.842743 576.292969,286.477875 583.943604,281.561890 
	C593.009338,275.736572 602.664124,278.629120 607.185303,288.397644 
	C609.539124,293.483337 610.196289,296.600098 609.654175,300.494019 
	C606.662903,300.046112 605.963501,297.339996 604.839844,295.375671 
	C597.232605,282.077118 589.405457,282.745911 579.751526,294.337097 
	C573.328125,302.049530 572.107849,311.937073 576.165100,317.970154 
	C580.247192,324.040314 590.695251,327.330627 599.725708,324.733429 
	C614.204895,320.569122 621.694580,309.617035 625.470703,295.951782 
	C630.759155,276.813690 614.907837,255.556442 594.657837,254.280838 
	C574.246521,252.995102 557.536133,261.151703 545.405762,276.901520 
	C530.895874,295.740845 519.644165,316.556030 514.842224,340.263947 
	C513.244812,348.150635 514.507019,356.178558 513.625610,364.167267 
	C511.086365,387.181702 505.178406,409.251556 496.707092,430.710297 
	C494.139893,437.213379 491.498291,443.687073 488.447845,451.276093 
	C498.109253,440.349304 506.792267,430.041382 514.558960,418.997467 
	C527.397827,400.741150 541.429932,383.765442 561.300903,372.550079 
	C575.203369,364.703369 590.228210,359.985870 605.921875,359.088806 
	C624.029114,358.053833 637.093384,348.969574 648.960999,336.709839 
	C659.988831,325.317657 669.000488,312.165375 680.068115,300.847565 
	C701.337585,279.097229 725.734985,262.373901 756.430664,257.298859 
	C770.213684,255.020065 783.368469,257.497253 794.252197,267.304504 
	C795.360962,268.303619 796.389221,269.424866 797.288208,270.615265 
	C798.351501,272.023041 800.046387,273.561493 798.397949,275.416351 
	C796.979980,277.011688 795.286743,275.852966 793.849304,275.071228 
	C789.015442,272.442474 784.209412,269.739502 778.806030,268.435974 
	C766.492126,265.465302 754.627441,267.701233 743.106262,272.064789 
	C718.994019,281.197235 698.496948,295.780701 680.765869,314.344940 
	C667.214050,328.533539 654.554443,343.699463 636.865540,353.466705 
	C652.107300,350.927429 665.919922,354.681976 679.684814,363.126251 
	C678.202393,347.677368 687.784668,340.199463 698.227539,333.411224 
	C707.627197,327.301117 714.325012,318.527740 721.631836,310.329041 
	C731.697205,299.034943 745.549500,295.259186 758.652405,300.123444 
	C765.357666,302.612640 769.970398,307.607635 774.136353,313.100311 
	C775.930237,315.465424 777.517212,317.987457 779.487488,320.859985 
	C781.421448,316.501434 783.117737,312.557678 785.999573,309.291321 
	C799.966248,293.461121 823.439697,296.249420 833.208923,314.950745 
	C834.208862,316.864990 835.257568,318.836090 835.772217,320.907837 
	C838.391724,331.453247 845.455566,337.906738 854.680237,342.888489 
	C871.457153,351.948792 878.791809,366.442383 876.378845,384.642151 
	C874.177429,401.246368 864.526917,409.383942 847.843933,408.722870 
	C846.749268,408.679443 845.614014,407.965851 844.276855,409.051178 
	C844.945251,409.606537 845.548584,410.097260 846.140503,410.601257 
	C855.151550,418.273346 857.312805,428.087860 852.454590,438.897888 
	C849.344910,445.817322 844.574219,451.633026 840.076721,457.615387 
	C835.820679,463.276428 831.885010,469.187958 830.930420,476.269806 
	C828.842529,491.757812 819.543457,500.554352 805.326965,504.991058 
	C795.962463,507.913544 786.955261,511.976074 777.237183,513.776123 
	C772.764465,514.604553 768.240112,514.687988 763.797729,514.060608 
	C752.017090,512.396973 746.372070,506.736328 743.536011,494.516693 
	C742.828918,491.470154 743.169189,488.190765 741.641846,485.338135 
	C741.195374,485.338135 740.781189,485.205688 740.578186,485.356873 
	C714.262573,504.959106 679.224609,494.479553 669.006958,463.562744 
	C665.522217,453.018463 661.260132,443.004425 655.145386,433.790588 
	C647.584412,422.397552 647.126038,411.257782 654.206726,399.150818 
	C660.745178,387.971130 667.740601,378.092285 682.820312,376.101837 
	C674.051453,368.252838 664.837158,363.891754 654.575684,361.253113 
	C644.725159,358.720123 634.970703,360.874237 625.239990,361.534637 
	C611.100464,362.494232 597.159729,364.970367 583.959412,370.531097 
	C582.910522,370.972931 581.861084,371.413391 579.933472,372.223755 
	C585.330322,373.139587 589.888794,373.575531 594.264832,374.713257 
	C615.023071,380.110321 628.117737,393.231567 632.973633,414.199585 
	C637.877808,435.376129 616.595215,457.667053 595.809509,453.290497 
	C583.925049,450.788147 572.885376,434.809631 574.789612,422.866913 
	C575.950073,415.588806 584.197266,410.397736 591.106079,412.675415 
	C590.924805,415.107697 588.681458,415.620819 587.199829,416.780487 
	C580.671997,421.889893 579.276367,427.949036 583.021667,435.254517 
	C587.616821,444.217834 596.366333,448.662231 606.234070,447.045502 
	C614.954956,445.616699 622.186218,437.727417 623.649231,428.045502 
	C626.519226,409.053009 616.614136,390.153046 599.296692,381.720490 
	C590.127686,377.255737 580.922791,377.747589 571.811035,381.921661 
	C562.368225,386.247467 554.159546,392.539337 545.519226,398.192902 
	C529.790955,408.484131 518.522949,422.688599 508.057800,437.814117 
	C505.883942,440.956085 503.600220,444.123779 500.864746,446.757812 
	C489.014252,458.169006 478.869019,470.858612 470.923492,485.830048 
	C473.916565,483.415955 476.665527,481.236237 479.374359,479.007751 
	C495.226532,465.966370 518.859802,463.693787 536.589233,473.539001 
	C550.167175,481.078888 555.397705,493.726990 557.155701,508.171295 
	C557.956421,514.749695 557.180359,521.410034 556.580078,528.074219 
	C554.750549,548.383972 528.462402,563.920471 508.280823,559.798828 
	C497.079468,557.511230 490.767883,550.138367 488.412628,539.200317 
	C484.806213,522.451721 497.907623,502.517578 514.537659,499.337250 
	C527.699951,496.820068 534.580872,502.927551 533.239624,516.217957 
	C532.628052,522.278381 530.192749,527.629944 525.569763,532.226013 
	C523.663086,530.156738 524.728088,528.387512 525.159973,526.792358 
	C526.432800,522.090942 527.181702,517.344910 526.833252,512.471741 
	C526.471130,507.409088 524.348083,505.428802 519.219543,505.160828 
	C514.922241,504.936310 510.991760,505.947815 507.359772,508.295837 
	C496.754578,515.151855 491.333771,531.713501 495.940613,543.338928 
	C498.826080,550.620544 506.912201,555.364990 514.846130,554.431702 
	C534.026062,552.175354 547.897583,537.209961 548.781372,517.823425 
	C549.092957,510.990631 549.133789,504.217712 547.071228,497.546356 
	C541.905457,480.837280 526.419983,470.192566 507.695068,472.508087 
M715.968506,440.949310 
	C715.968506,440.949310 715.656250,440.565094 715.875122,439.923309 
	C716.635620,438.509521 718.081909,437.960327 719.336853,437.164307 
	C726.773804,432.446838 733.935547,427.368195 740.335205,421.274841 
	C741.398315,420.262634 742.922485,419.506165 741.278625,417.562714 
	C735.391296,420.636536 729.389221,423.421753 722.572693,423.372437 
	C725.108215,420.293488 728.785522,419.708527 732.003052,418.303131 
	C739.409241,415.068146 739.477966,415.225464 739.518066,410.635162 
	C722.809631,418.113281 706.435730,417.882965 690.395996,409.106415 
	C707.648682,415.464966 724.311279,415.106964 740.542297,406.024628 
	C739.631897,403.681183 736.767761,405.257416 736.508240,402.825989 
	C737.046021,399.943817 741.645325,401.645386 742.171082,397.970886 
	C725.914246,399.803467 711.764771,394.664703 698.494324,386.280518 
	C697.403625,385.591461 696.062073,385.182953 694.780640,384.929718 
	C673.162048,380.657135 661.401306,393.203583 654.526245,412.013550 
	C653.220886,415.584869 654.982483,419.270325 656.903748,422.456604 
	C659.137207,426.160583 661.472107,429.819214 664.000000,433.326782 
	C671.077209,443.147095 677.048096,453.422852 678.825195,465.680786 
	C680.202637,475.181549 686.014221,481.088562 694.600769,484.711517 
	C699.083374,486.602814 703.761597,487.757690 708.484680,488.751099 
	C722.546082,491.708801 737.313599,484.248322 741.743347,470.542999 
	C744.996826,460.477020 748.198059,450.435608 752.056641,440.515289 
	C747.606384,446.531433 743.156128,452.547546 738.705933,458.563660 
	C738.067139,453.729095 741.458374,451.168549 743.611694,448.079498 
	C747.243225,442.869873 750.320984,437.385101 753.083313,431.711273 
	C753.841187,430.154602 754.645691,428.034790 752.691589,426.738983 
	C750.982117,425.605377 750.052063,427.282898 749.103455,428.426971 
	C748.051697,429.695648 746.977905,430.946503 745.897522,432.191010 
	C739.525635,439.530914 732.112793,445.949890 726.677185,454.180237 
	C726.572449,449.390167 729.747314,446.348022 732.273987,443.059784 
	C736.715698,437.279175 742.281494,432.422546 746.246033,426.234467 
	C746.896790,425.218689 747.612427,424.232513 746.379211,423.165527 
	C745.119324,422.075439 744.166321,422.476776 742.928101,423.496368 
	C738.849487,426.855042 734.819946,430.342316 730.390625,433.187042 
	C725.834473,436.113220 721.755798,439.968414 715.968506,440.949310 
M554.988098,674.980347 
	C554.988098,674.980347 554.967468,674.944275 554.814209,675.634155 
	C554.243652,677.561584 552.558228,678.243774 550.947083,678.279907 
	C545.896179,678.393372 542.539612,681.445679 539.254761,684.623901 
	C532.542786,691.118042 525.396790,697.107605 518.182190,703.021851 
	C516.509705,704.393005 514.152466,705.570251 513.767822,707.619385 
	C513.149170,710.915466 510.895782,711.618347 508.404175,712.691101 
	C501.237091,715.776855 496.444946,721.692932 490.558746,727.160706 
	C498.950775,729.433777 506.689667,729.012451 514.591370,729.120117 
	C513.858398,731.121826 512.843201,731.456726 511.879028,731.519226 
	C506.123260,731.892334 500.356232,732.516357 494.610657,731.421753 
	C491.278320,730.786926 487.679871,730.356628 485.113953,732.728271 
	C475.219574,741.873352 466.164124,751.808350 457.938110,763.001282 
	C460.424438,763.011597 462.377960,760.087585 464.842316,763.049683 
	C462.174316,767.189331 456.618408,766.828186 453.636963,770.846863 
	C447.730072,778.808716 440.200500,785.713745 441.323486,796.907959 
	C441.438019,798.049500 440.704834,798.831970 439.874878,799.365417 
	C436.181824,801.739014 435.085236,805.584717 433.988617,809.451965 
	C432.082550,816.173584 430.262329,822.921936 428.198944,829.595093 
	C427.573669,831.617310 428.283356,833.155090 428.960663,834.838379 
	C433.946808,847.229858 439.936768,859.116943 447.013123,870.443909 
	C450.194519,875.536255 453.187622,880.778259 457.825897,886.134766 
	C451.383301,855.159424 456.825958,826.899719 469.890411,799.748718 
	C481.475250,775.672852 500.357849,757.433228 518.899841,739.009888 
	C531.065552,726.922058 543.886719,715.494080 556.403259,703.758789 
	C557.244873,702.969788 558.822266,701.579590 558.661743,701.314514 
	C556.023010,696.959106 560.406067,697.069641 562.192993,695.980103 
	C564.752808,694.419373 567.442383,693.111328 569.586792,690.943970 
	C580.257568,680.158997 590.630981,669.126526 599.431824,656.700989 
	C611.728577,639.339661 621.118774,620.667603 623.707642,599.327881 
	C627.466187,568.345764 623.367554,538.187683 612.523743,508.964691 
	C610.515320,503.552124 608.885254,497.915802 605.325806,493.040894 
	C604.828918,500.108856 605.488281,507.155457 604.713928,514.040833 
	C601.476501,542.827942 587.222717,566.110107 567.247681,586.243164 
	C546.326599,607.329651 521.339294,622.412292 494.735504,635.218079 
	C472.359680,645.988708 451.680511,659.335083 435.857605,678.983032 
	C423.715820,694.059998 414.642029,711.035156 413.355255,730.414124 
	C411.720642,755.031921 413.762177,779.663452 419.305603,803.857117 
	C419.881744,806.371582 420.679901,808.743286 423.648010,811.547058 
	C424.195129,798.318542 434.899780,788.659729 431.259460,775.579346 
	C431.174591,775.274353 431.241760,774.913696 431.291290,774.587097 
	C431.449615,773.543762 431.836395,772.610168 433.009949,772.432495 
	C434.214844,772.250000 434.871826,772.991211 435.113068,774.070251 
	C435.355438,775.154602 435.482483,776.264709 435.669708,777.423096 
	C437.198792,777.013977 437.531921,775.764099 438.086365,774.848328 
	C445.373810,762.812744 454.156158,751.930542 463.956421,741.900696 
	C467.238831,738.541260 468.385895,735.121338 467.278687,730.665833 
	C466.793762,728.714478 466.089081,726.450684 468.882996,725.142212 
	C471.451172,727.212036 470.034210,730.719177 472.177673,733.014648 
	C474.388306,731.099854 476.690094,729.438171 478.588867,727.400940 
	C485.051208,720.467346 494.607605,716.235535 497.372711,706.025330 
	C497.494720,705.574890 498.467621,705.354919 499.017822,705.011658 
	C499.017822,705.011658 498.993866,704.997192 499.331787,705.494995 
	C500.601715,707.679871 501.948975,707.331116 503.716095,705.914917 
	C508.525055,702.060730 513.452087,698.353516 518.343018,694.601868 
	C522.821655,691.166443 527.378784,688.015564 528.895203,681.876526 
	C529.990112,677.444214 532.194214,680.337646 534.073853,682.171692 
	C534.884644,681.239075 535.574036,680.281250 536.422791,679.495483 
	C545.057373,671.501587 554.727417,664.315613 557.548645,651.862610 
	C557.806702,650.723938 558.470642,649.453552 559.880493,649.670837 
	C563.214600,650.184814 564.097046,647.648926 565.378662,645.561646 
	C575.651245,628.831787 582.420105,610.575928 588.711914,592.105896 
	C589.370239,590.173279 589.524292,587.888184 591.520447,586.414185 
	C592.724426,588.329712 591.623413,589.843628 591.226135,591.338440 
	C588.485718,601.651306 584.437012,611.536133 581.182617,621.670166 
	C578.169250,631.053711 570.909973,638.838257 570.920654,649.320862 
	C570.921143,649.832031 570.236328,650.478882 569.715271,650.835449 
	C561.067505,656.752808 557.609985,666.991760 549.156311,674.428101 
	C551.863770,674.545837 553.588806,674.041138 554.988098,674.980347 
M214.198181,418.110443 
	C221.772491,421.122620 226.418564,427.922241 232.649460,432.767273 
	C225.653412,424.285278 225.181076,412.095184 215.910660,405.116730 
	C227.615128,409.470398 228.106445,423.168671 237.015625,429.780212 
	C233.119232,418.996735 225.280945,409.954132 224.060089,398.127502 
	C229.366592,407.712982 234.258316,417.465973 241.841461,425.810242 
	C241.386414,413.381561 229.694290,403.436829 234.131378,390.140442 
	C234.917709,395.525055 235.470306,400.959503 238.184387,405.824890 
	C240.755447,410.433990 242.845871,415.344299 246.547104,419.338562 
	C245.352295,413.616211 243.812836,408.049652 242.117096,402.531158 
	C239.075592,392.633026 238.859634,389.992462 241.723099,384.923584 
	C242.300537,396.693787 246.343185,406.364105 250.379303,416.144073 
	C253.266632,404.712708 244.433838,394.488831 247.456390,383.186249 
	C248.821335,395.141052 255.349106,405.786713 254.789536,418.836639 
	C257.834137,416.685242 257.474426,415.069855 257.173584,413.411743 
	C255.543427,404.426483 253.930801,395.437927 252.352081,386.443481 
	C252.036316,384.644348 251.339752,382.674530 254.056747,380.739624 
	C255.340347,392.081757 258.226532,402.391235 261.588959,413.633362 
	C262.280121,398.199371 262.782410,383.722168 260.428101,369.444763 
	C257.875519,353.965210 253.715195,338.814514 245.548462,325.214874 
	C239.956787,315.903351 231.376648,311.054535 220.367706,312.164398 
	C203.254639,313.889526 190.633011,323.161224 183.058472,338.108002 
	C176.691101,350.672668 167.793549,359.045319 154.394760,363.307068 
	C148.116837,365.303894 141.946213,368.213287 137.602066,373.672577 
	C129.120163,384.331726 129.560638,399.786285 138.617157,413.261932 
	C157.484161,441.335083 184.475098,450.793884 216.998718,447.383698 
	C219.399109,447.131989 222.311264,447.882782 224.360489,445.630707 
	C223.192032,443.097626 221.079895,443.249969 219.119965,443.277649 
	C211.981186,443.378479 204.842484,443.702240 197.705627,443.655731 
	C191.993240,443.618500 187.232285,440.739319 185.719376,436.342285 
	C198.268341,445.741058 211.918152,437.311890 224.749634,440.157227 
	C220.217316,435.407349 214.732346,432.719696 208.302139,432.118439 
	C204.002563,431.716431 199.678528,431.565857 195.363235,431.345886 
	C192.718796,431.211060 192.716934,431.247589 190.385483,428.958923 
	C203.498016,429.335144 216.586517,427.775482 227.983276,436.352295 
	C222.361282,424.279602 211.901932,419.218536 200.667099,415.064056 
	C205.510803,414.074310 209.454758,416.158447 214.198181,418.110443 
M216.641312,471.140442 
	C213.556213,473.316010 212.027740,477.242249 207.290421,479.796112 
	C212.561386,468.362061 223.569839,463.646393 228.811188,454.030457 
	C218.626587,457.640808 209.866898,463.591736 200.843216,469.196472 
	C206.268738,461.932892 214.102081,457.759125 222.356766,452.210388 
	C213.186935,454.466125 205.195450,455.414398 196.972031,454.620178 
	C182.732117,453.244812 169.812912,448.326996 157.730774,440.883820 
	C156.184311,439.931122 154.581879,438.701447 152.874725,438.433990 
	C134.436600,435.545319 116.118279,450.637939 122.459335,469.609985 
	C123.457314,472.595856 124.530899,475.629822 126.089226,478.343048 
	C135.702820,495.081390 145.892090,511.491028 152.738998,529.691589 
	C155.219711,536.285889 160.126434,540.755188 167.442612,541.820068 
	C179.558426,543.583435 190.220276,548.889832 200.645325,554.966125 
	C206.706329,558.498840 213.264893,559.884338 220.357803,558.178284 
	C231.529114,555.491455 238.013870,548.044373 241.662308,537.684143 
	C245.195801,527.650269 245.585129,517.185974 245.742645,506.669159 
	C245.963257,491.940552 244.033264,477.033417 249.186279,462.665497 
	C242.957001,472.152435 241.055115,482.962433 239.116211,493.812714 
	C237.345932,481.761017 240.889023,470.742004 246.355698,459.279083 
	C234.312988,467.283875 229.056335,478.256531 226.871689,491.220673 
	C225.868256,481.338440 228.598572,472.698395 234.675308,465.033264 
	C226.150284,469.916809 221.061829,477.564880 216.151138,485.426880 
	C218.727341,473.491211 227.470261,466.111481 236.255783,458.680725 
	C234.643723,456.481262 233.232010,456.011597 231.358337,458.117889 
	C227.135056,462.865417 221.882141,466.464172 216.641312,471.140442 
M291.327454,417.255585 
	C286.291351,420.486725 282.630859,425.197388 278.280334,429.323944 
	C286.860016,427.812531 294.427887,421.890961 303.721283,424.148865 
	C297.683105,426.562164 290.935699,427.090485 284.586609,431.789825 
	C290.621948,431.978760 295.526978,430.924164 300.355347,432.721222 
	C295.824036,433.991028 291.205231,434.473389 286.636078,435.248596 
	C277.530487,436.793488 275.772247,437.633270 273.661896,441.217010 
	C297.407104,433.484528 319.074341,435.621979 337.714020,453.163879 
	C352.674011,437.222870 362.031586,418.688507 364.659790,396.974792 
	C367.097046,376.838745 352.270416,358.306305 335.346436,356.035187 
	C323.177155,354.402161 314.376404,346.968781 309.581909,335.470886 
	C304.792328,323.984711 296.528900,315.459259 286.830139,308.166565 
	C276.403748,300.326782 264.977448,301.866455 256.836182,312.039429 
	C255.073135,314.242432 253.698532,316.752014 252.020813,319.028839 
	C250.548767,321.026581 250.628342,322.746735 251.861862,324.950867 
	C266.420624,350.965210 272.631317,378.756805 269.440887,408.529388 
	C269.229645,410.500427 268.539368,412.646576 269.944000,415.176666 
	C275.548157,405.229187 275.855438,393.718170 282.866333,385.048615 
	C277.348480,396.703430 277.568542,410.167389 270.793610,421.911743 
	C280.567017,417.177490 282.384674,405.102783 291.827667,400.670837 
	C284.235291,408.739807 281.840729,420.686218 271.755219,426.882019 
	C275.994720,426.601318 278.632843,423.806732 281.596741,421.583740 
	C284.254395,419.590424 286.876648,417.540192 289.639557,415.703003 
	C290.436890,415.172791 292.435120,413.859589 291.327454,417.255585 
M408.961212,149.162064 
	C405.681824,148.036057 402.266663,150.162125 398.488586,148.965683 
	C399.788727,147.315323 401.100189,146.760849 402.628998,146.776718 
	C407.445801,146.826736 412.241760,146.657776 417.077942,147.243866 
	C422.808868,147.938339 428.712219,149.788498 434.439758,146.526413 
	C422.068939,145.002502 412.246765,134.492554 398.641663,137.466827 
	C402.146790,134.132828 405.905304,134.617783 409.623932,135.254333 
	C415.408844,136.244629 420.707916,138.736099 426.182220,140.707901 
	C429.057037,141.743393 432.206696,143.473633 436.053284,140.423691 
	C424.054108,134.065063 413.634247,125.896431 399.863098,124.953400 
	C408.563507,122.539017 415.930573,126.657417 423.846863,128.766510 
	C418.316071,124.208000 412.785278,119.649498 407.254456,115.090988 
	C407.584015,114.648773 407.913574,114.206551 408.243134,113.764336 
	C416.128174,118.105034 422.391571,125.055115 430.587341,128.954315 
	C422.310242,118.322464 416.422882,106.857803 414.284607,93.420822 
	C412.586914,82.752335 412.382019,72.252617 414.341003,61.651680 
	C414.775024,59.302868 415.547394,56.645039 412.480621,55.093613 
	C392.877319,45.176594 378.897675,44.970894 362.057190,57.520912 
	C355.013062,62.770401 351.860840,70.023232 353.805298,79.078712 
	C354.957062,84.442612 355.692566,89.895638 356.625580,95.306801 
	C358.827942,108.079391 355.345703,118.686508 344.766510,126.628540 
	C342.503448,128.327469 340.310364,130.121246 338.113190,131.905960 
	C332.593079,136.389816 330.753265,142.284729 332.720581,148.916458 
	C335.797607,159.288864 339.790680,169.775330 350.602600,174.133026 
	C362.118256,178.774353 374.058807,185.593262 386.734741,176.550064 
	C387.263733,176.172668 387.955048,176.024933 388.566681,175.760788 
	C398.022308,171.677139 408.220734,170.811707 418.179565,168.893860 
	C426.164337,167.356201 433.353943,164.011169 439.863190,159.164536 
	C431.683258,160.791367 423.804291,163.276779 416.162506,166.988235 
	C415.743134,164.292587 418.050171,164.109451 418.337402,162.615967 
	C414.815277,162.187393 412.323029,165.791534 407.824127,165.281830 
	C413.181763,159.651382 420.156830,159.263199 426.118195,156.279602 
	C417.947235,155.159805 410.099762,154.603897 402.363251,157.060318 
	C402.165344,155.647659 402.650513,155.194229 403.264832,154.934418 
	C410.299011,151.959473 417.861725,153.064102 425.252533,151.610306 
	C420.093628,150.813873 414.934692,150.017426 408.961212,149.162064 
M518.850769,86.338615 
	C519.583191,84.480698 520.408997,82.653503 521.032349,80.759697 
	C524.303955,70.820274 525.880005,60.721581 523.657043,50.305073 
	C520.333069,34.729927 509.063965,26.875666 493.361237,29.034498 
	C490.365753,29.446320 487.361481,29.851789 484.657013,31.130020 
	C472.547485,36.853401 460.579224,36.782108 447.865509,32.424374 
	C434.863770,27.967911 425.833893,33.747356 423.360474,47.242229 
	C421.384827,58.021114 419.533356,68.861046 419.102692,79.868057 
	C418.368896,98.619911 427.485352,113.332649 437.832031,127.653183 
	C440.191254,116.234505 434.085754,107.255592 430.229309,97.596573 
	C434.300537,101.563538 436.837219,106.326256 439.393463,111.107056 
	C442.091705,116.153442 440.320038,122.241081 443.214661,127.626419 
	C446.829956,115.543343 442.188843,105.324409 437.498230,95.074440 
	C446.021362,103.729210 448.565979,114.448502 448.592072,126.162636 
	C449.789886,122.552788 450.355103,119.124474 450.731537,115.675552 
	C451.106995,112.235382 449.438995,109.188728 448.568878,105.995255 
	C447.723053,102.890862 445.550568,100.102715 445.379303,95.643257 
	C449.195740,98.730896 449.727570,102.191948 451.204376,105.079933 
	C452.797821,108.196053 453.919037,111.565437 454.157288,115.083755 
	C454.365570,118.160034 454.200745,121.261581 454.200745,125.246651 
	C456.756317,115.688011 452.903870,106.340950 456.772522,97.886505 
	C457.292542,97.906342 457.812592,97.926178 458.332642,97.946014 
	C458.332642,107.584068 458.332642,117.222122 458.332642,126.860176 
	C460.237091,125.219452 461.241547,123.511955 461.940765,121.687454 
	C464.320068,115.478928 466.441406,109.167870 468.949646,103.013504 
	C471.155548,97.601067 475.315186,94.081619 480.555603,93.643089 
	C466.649048,103.451813 469.006134,119.798531 461.981384,132.021484 
	C467.283569,127.364082 469.841919,120.752693 474.416199,115.606018 
	C480.656067,108.585258 487.115326,103.747650 492.337860,104.124214 
	C478.724213,111.829597 471.703125,123.667976 465.043701,137.597107 
	C474.164764,126.227432 485.082031,119.259651 496.040955,112.353394 
	C505.993896,106.081139 514.112183,98.194527 518.850769,86.338615 
M277.824249,457.796417 
	C286.388397,460.852570 295.922516,460.540741 304.036682,465.313538 
	C293.221252,463.743042 282.339600,462.855316 271.650330,459.990143 
	C276.882263,469.514008 286.159973,472.205353 295.787628,474.427338 
	C285.977417,476.093384 278.233582,471.707214 270.558228,465.953308 
	C274.995728,483.195557 274.953735,486.312225 270.422729,488.924988 
	C271.524384,476.389221 269.820526,469.694946 263.337219,461.084564 
	C262.042572,472.860962 257.273193,483.956879 257.598602,497.101135 
	C255.240906,494.522675 255.327026,492.929810 255.417343,491.229248 
	C255.876785,482.577393 258.488037,474.273987 259.436401,465.726257 
	C259.689087,463.448792 261.755676,459.203094 258.433411,458.798676 
	C254.906967,458.369354 255.718018,462.961731 255.382141,465.418457 
	C253.191559,481.441101 253.973145,497.650085 252.482544,513.744873 
	C251.262909,526.913757 248.541214,539.362366 240.871445,550.367737 
	C239.801926,551.902405 238.805603,553.413208 239.574814,555.426392 
	C243.265060,565.084290 248.839966,572.711243 259.786926,574.903992 
	C272.114960,577.373474 282.836823,573.838379 292.520996,566.385437 
	C298.367981,561.885559 300.808960,556.094360 300.057617,548.505066 
	C298.716339,534.956543 301.354950,522.863953 314.662598,515.659729 
	C315.823425,515.031311 316.855499,514.142456 317.886383,513.299866 
	C328.478668,504.642700 335.415955,493.788269 337.593262,480.144531 
	C339.670685,467.126953 335.098267,455.820068 324.768524,450.627014 
	C308.702057,442.550018 291.991638,444.260559 274.231537,448.278748 
	C284.023865,451.774200 293.760284,449.336395 302.381989,453.511139 
	C296.966888,453.469696 291.602509,452.880310 286.266785,453.319122 
	C280.693970,453.777435 275.301636,452.433136 268.655457,451.244354 
	C271.296448,455.245880 274.181061,456.408478 277.824249,457.796417 
M485.282715,168.169540 
	C480.300690,166.893875 475.340057,164.789642 470.168823,167.584885 
	C475.719055,169.529007 481.459320,170.522659 486.237274,174.112152 
	C491.271454,177.894150 494.584076,184.075302 493.397675,188.942917 
	C490.887604,183.985809 489.195435,178.938370 484.343414,176.316788 
	C479.822510,173.874146 475.048889,172.458588 469.223541,172.157959 
	C486.207886,186.133789 491.997925,203.633896 489.558411,224.231323 
	C489.310791,226.322083 489.884369,227.674957 491.412323,229.004639 
	C495.361847,232.441818 499.690582,232.966461 504.284790,230.336334 
	C509.738129,227.214371 514.144653,222.893814 517.703003,217.805679 
	C524.413269,208.210663 533.739624,202.521194 544.637512,198.977646 
	C547.484253,198.052032 550.345520,197.104370 553.067200,195.873032 
	C563.884460,190.979187 566.837036,183.089874 561.980103,172.201370 
	C561.170105,170.385391 560.142090,168.649582 559.066040,166.972168 
	C552.888306,157.342361 551.067749,147.055130 555.983093,136.559464 
	C560.114868,127.736977 558.629456,119.906715 554.367859,111.805252 
	C550.354919,104.176445 544.336914,100.195610 535.776917,101.095421 
	C525.973511,102.125946 516.740234,104.218880 509.230621,111.912285 
	C501.065796,120.276939 490.232788,125.344666 480.845337,132.246140 
	C479.117554,133.516342 476.799988,134.312744 475.738617,137.169952 
	C487.231934,134.063339 496.582855,128.104111 505.894501,121.971634 
	C498.839386,130.719193 488.963806,135.201248 478.486389,140.178360 
	C500.915771,137.542877 502.831848,137.690109 506.600983,142.697617 
	C500.900940,141.361786 495.846680,139.676514 490.222687,141.006302 
	C484.825378,142.282471 479.605530,143.884766 474.366333,145.576370 
	C480.417145,145.525787 486.365692,144.874542 492.325012,144.753143 
	C500.699371,144.582535 505.945221,147.087860 508.012024,152.144760 
	C495.232727,144.785492 482.728790,148.619995 468.880707,151.130783 
	C471.960327,153.301132 474.020294,153.170654 476.175476,153.128723 
	C482.834015,152.999222 489.410858,151.417908 496.097992,151.998474 
	C500.903198,152.415649 505.289154,153.786636 508.354889,158.146057 
	C503.574585,156.018692 498.736267,154.822784 493.546326,154.983780 
	C487.497986,155.171432 482.025848,155.920517 479.010681,157.399292 
	C496.472992,155.379700 505.546783,158.753159 505.996490,165.416733 
	C496.360687,159.878769 482.086456,158.417542 470.115479,162.246948 
	C476.815857,162.844070 482.424774,163.411041 487.553802,165.920731 
	C492.618683,168.399017 497.736938,170.805099 500.155365,176.462708 
	C495.594482,173.412460 491.386047,169.920822 485.282715,168.169540 
M462.285370,213.008759 
	C462.025696,214.143692 462.793793,215.817932 459.955994,216.129486 
	C458.843903,204.799438 458.352295,193.274918 452.727448,181.913467 
	C451.746704,187.936890 451.723663,193.021790 451.848328,198.159653 
	C451.971252,203.226379 452.190674,208.426819 448.699860,212.874817 
	C450.607971,201.056778 445.905273,189.110184 449.967224,177.366638 
	C443.789978,187.286194 443.165710,199.963120 433.948303,208.287216 
	C438.075775,200.371445 441.544769,192.336960 442.471649,181.958389 
	C435.845795,190.812729 430.324127,199.070358 419.798676,201.272293 
	C425.730469,197.329437 431.139313,192.901627 435.034882,186.862305 
	C438.824768,180.986893 442.710144,175.173096 446.553589,169.332245 
	C439.931854,171.943527 436.502502,177.948257 430.873444,181.411072 
	C425.401733,184.777115 420.172791,188.511215 413.148895,188.543945 
	C425.694000,183.599655 435.034515,174.955551 442.877594,164.451416 
	C432.789825,175.240234 419.398376,177.714386 405.689850,179.304657 
	C396.636658,180.354874 387.704620,182.025131 380.740784,188.336792 
	C369.927734,198.137192 362.950256,210.339569 360.599060,224.816772 
	C358.303619,238.950821 368.165894,248.760651 382.140106,246.665253 
	C384.112640,246.369461 386.056854,245.881912 388.011383,245.469894 
	C399.444366,243.059769 410.729248,242.998352 422.052582,246.533157 
	C430.772858,249.255371 439.407837,252.423828 448.590302,253.483185 
	C456.914154,254.443466 464.705750,253.330322 470.773956,247.071030 
	C476.023468,241.656204 480.016754,235.349808 482.677490,228.180573 
	C487.277649,215.785416 482.985931,198.052292 475.627808,190.717407 
	C478.131042,200.137039 478.290039,204.637390 475.861481,207.884888 
	C474.526398,201.732071 475.078827,195.513123 471.945892,190.174744 
	C468.931915,185.039078 465.573425,180.236160 459.839050,176.201309 
	C461.494904,181.256226 464.503937,184.442230 466.622986,188.125641 
	C468.826233,191.955460 469.910004,196.162186 470.184052,200.503464 
	C470.440308,204.562912 470.238861,208.651260 470.238861,212.726883 
	C469.537628,212.808762 468.836395,212.890640 468.135162,212.972534 
	C468.385925,201.457520 467.414825,190.407761 457.143951,182.098740 
	C460.516510,192.320374 461.765320,202.187637 462.285370,213.008759 
M781.893616,430.882355 
	C785.871399,441.793915 785.239380,450.853027 779.377441,456.133759 
	C780.797607,449.272736 782.965393,443.266296 780.841675,436.940826 
	C778.635010,430.368378 774.528015,425.200073 769.014526,423.047668 
	C773.594421,435.584351 772.590698,450.964783 766.099792,454.730804 
	C769.169312,443.909027 771.690735,433.562134 763.844299,424.205658 
	C764.472107,436.160187 759.721252,446.479767 754.357483,456.416321 
	C748.114502,467.981567 747.258667,480.218231 748.430847,492.817932 
	C749.194275,501.024170 755.098877,506.208282 763.437195,506.840790 
	C771.285034,507.436096 778.639648,505.727600 785.774414,502.594604 
	C792.633850,499.582428 799.412842,496.246368 806.735474,494.541870 
	C817.867615,491.950623 823.832458,484.926971 825.536072,473.896851 
	C826.934082,464.846313 831.268311,457.321625 837.399658,450.676270 
	C839.542480,448.353821 841.630005,445.943878 843.451721,443.367981 
	C850.682068,433.144196 849.806030,423.930542 841.899963,414.261230 
	C838.038452,409.538574 833.628174,407.433746 827.834473,407.394592 
	C819.966003,407.341431 812.273499,405.958649 804.598694,404.374908 
	C799.639465,403.351562 794.642151,402.512360 789.661926,401.590637 
	C795.796936,404.429504 802.541504,405.116730 808.566956,408.370758 
	C798.656311,408.965668 789.273682,404.463501 779.359192,405.114349 
	C790.403870,412.278168 804.102905,410.720917 815.470703,416.719635 
	C802.759827,412.887421 788.796936,415.389526 776.658752,408.732025 
	C785.639832,418.310822 796.821472,423.597839 809.567871,426.027252 
	C794.859253,427.458435 783.808838,419.281433 772.384155,411.985718 
	C781.987488,419.873352 790.246948,429.460297 802.480652,433.730835 
	C797.625610,434.704773 793.916382,432.505188 790.348572,430.191711 
	C786.867554,427.934479 783.608643,425.336487 780.229858,422.919312 
	C776.892639,420.531921 773.992737,417.410187 769.540833,416.650909 
	C773.179565,421.531128 779.029297,424.428345 781.893616,430.882355 
M815.746460,380.570038 
	C806.532959,382.842102 798.530884,388.195923 789.221252,390.717529 
	C797.612793,393.752228 806.499023,390.418243 814.619873,393.740479 
	C811.025452,395.958099 807.046143,394.295807 803.411194,395.364929 
	C814.035156,399.129395 842.220337,403.975250 851.907349,403.715149 
	C859.171509,403.520111 864.530273,400.226074 866.826782,393.309753 
	C871.060913,380.557861 869.829773,368.611755 859.966553,358.604767 
	C856.937683,355.531738 853.634521,352.650757 850.127380,350.142700 
	C840.746704,343.434357 833.704041,335.118500 830.550476,323.810089 
	C830.064087,322.065735 829.182556,320.404633 828.310547,318.799103 
	C822.652954,308.382568 812.585083,302.797668 803.469543,305.400421 
	C794.591309,307.935394 789.550049,314.720856 785.855713,322.666748 
	C784.080566,326.484863 783.243347,330.228790 784.872620,334.633820 
	C786.647400,339.432556 786.809875,344.680328 786.614563,349.877014 
	C786.118286,363.081116 781.049316,374.649567 774.276550,385.712952 
	C785.367004,379.512695 786.490479,366.685486 793.059692,357.391144 
	C790.924500,368.084045 786.878052,377.922882 780.212097,387.749725 
	C789.373901,386.831940 791.500244,377.497284 798.480225,375.037140 
	C797.465759,379.657410 793.779785,382.334045 791.097961,386.112396 
	C796.740845,385.622101 801.331726,382.740204 806.266174,381.007782 
	C815.998840,377.590729 817.803833,377.199280 821.573303,379.029663 
	C820.171082,380.662476 818.162354,380.032318 815.746460,380.570038 
M730.180542,313.672913 
	C721.459656,326.561157 710.880798,337.023315 696.363098,343.742859 
	C684.224121,349.361420 682.893311,358.278595 690.219055,369.666840 
	C693.543091,374.834320 699.139404,376.987305 703.147705,380.921448 
	C708.996826,386.662292 716.012390,387.896820 724.552795,390.049255 
	C720.311096,386.637543 715.701904,386.516785 712.411987,382.367065 
	C723.550537,383.675629 731.709351,392.434357 743.800171,390.941681 
	C735.720764,384.554413 727.192078,381.532013 719.168152,377.455872 
	C729.290649,378.082794 737.702087,383.465271 746.780212,387.128357 
	C740.183105,380.954590 733.514526,374.946136 728.500671,367.372040 
	C736.688843,371.907776 742.032166,380.105408 751.502014,384.673187 
	C746.003357,374.794739 741.221069,365.810150 735.596191,357.249939 
	C743.248474,362.354004 746.291077,371.116516 753.134094,378.768524 
	C751.059753,366.077515 750.558411,354.766937 748.334900,343.607483 
	C755.593079,356.230438 752.891663,371.818115 760.726990,384.367676 
	C760.586121,375.429657 763.039062,367.013184 764.295837,358.461700 
	C765.596680,349.609650 762.893982,341.318085 761.561462,332.499481 
	C764.182556,333.191162 764.177917,334.892609 764.647339,336.221039 
	C768.451782,346.987305 768.215332,357.923828 766.079224,368.967987 
	C765.166626,373.686432 763.605957,378.517731 767.172119,383.852997 
	C771.149170,376.725189 773.240356,369.564545 776.084717,362.722229 
	C781.575134,349.514557 780.161560,336.739502 774.645691,323.972656 
	C766.199463,304.423553 746.561951,298.512115 730.180542,313.672913 
M239.293411,449.480988 
	C243.439682,449.721130 247.524170,450.277893 251.594467,451.191528 
	C258.631592,452.771027 262.171539,451.048859 265.591095,444.838440 
	C268.299011,439.920441 267.500854,433.440033 263.727142,429.704834 
	C260.699738,426.708344 253.827499,426.356995 248.725800,429.330475 
	C244.434006,431.831940 240.326508,434.669769 236.267746,437.542816 
	C234.078003,439.092834 232.050674,441.100922 232.504272,444.117401 
	C232.997009,447.394012 235.581024,448.616241 239.293411,449.480988 
M462.570343,148.843430 
	C462.338867,143.606918 459.321564,139.860596 455.657990,136.648911 
	C452.122528,133.549561 446.668304,134.308380 444.891998,137.836487 
	C440.936096,145.693726 445.538269,161.927475 453.028992,166.483200 
	C453.732941,166.911331 454.473877,167.359680 455.258575,167.559860 
	C458.361755,168.351456 460.477020,167.558456 460.874573,163.969879 
	C461.403595,159.194794 462.030212,154.430496 462.570343,148.843430 
M772.645508,401.137482 
	C774.393677,395.015930 770.420654,390.645538 764.420715,392.027527 
	C761.994324,392.586395 759.502625,392.866180 757.082581,393.447418 
	C747.255676,395.807709 743.311096,405.725159 749.072632,413.476471 
	C752.442017,418.009583 759.389160,418.589844 762.280396,413.970337 
	C765.132324,409.413635 768.862915,405.749939 772.645508,401.137482 
M304.272614,699.556519 
	C306.111145,695.113098 306.446808,690.483276 305.489532,685.844299 
	C304.604340,681.554382 301.887665,680.523560 298.115051,682.721863 
	C293.316864,685.517761 290.689545,693.071960 292.551025,699.059204 
	C293.526459,702.196594 295.198700,705.147095 298.738708,705.496704 
	C302.068085,705.825562 302.729156,702.552429 304.272614,699.556519 
M278.427734,758.859924 
	C279.900208,757.029785 281.130768,755.042725 281.583893,752.723145 
	C282.195709,749.591187 281.080414,747.573975 277.671906,747.130005 
	C270.615417,746.210754 261.852356,753.522217 261.733154,760.537964 
	C261.669067,764.308899 263.512756,766.171143 267.338013,765.474304 
	C271.556641,764.705750 275.048828,762.544434 278.427734,758.859924 
M275.673798,730.444214 
	C276.624115,730.136902 277.594757,729.880554 278.520721,729.512085 
	C280.749329,728.624939 282.934692,727.498962 283.134857,724.800049 
	C283.330872,722.157166 281.449341,720.468384 279.439850,719.271484 
	C274.693237,716.444458 269.632751,716.194092 264.623352,718.472351 
	C262.340607,719.510620 260.198364,721.114380 260.300812,724.055237 
	C260.395782,726.782227 262.588409,727.945862 264.661652,729.050903 
	C267.870697,730.761169 271.327667,730.988770 275.673798,730.444214 
M295.387726,764.912231 
	C292.795715,766.485168 291.537476,768.979126 290.796021,771.766296 
	C289.630157,776.148804 291.476624,780.909180 294.958710,781.799927 
	C299.439148,782.945984 301.552551,779.734863 303.413696,776.478943 
	C305.009338,773.687622 304.949036,770.781677 303.709320,767.855652 
	C302.192719,764.276306 299.991516,762.330383 295.387726,764.912231 
M335.449829,700.975159 
	C337.485168,699.364197 338.799500,697.192200 339.368713,694.762756 
	C340.128387,691.520264 339.876251,688.106140 336.361359,686.667725 
	C332.630157,685.140808 329.515381,687.013794 327.325409,690.074158 
	C324.726837,693.705505 323.807953,697.827454 326.546021,701.661011 
	C329.108673,705.248962 332.119720,702.984863 335.449829,700.975159 
M331.672150,706.692627 
	C330.716492,707.268921 330.410217,708.204468 330.396576,709.224487 
	C330.277802,718.102661 333.100189,725.887451 338.818512,732.942505 
	C339.121094,723.250793 340.497803,713.669556 331.672150,706.692627 
M326.412140,775.839539 
	C328.868195,772.781372 328.405090,769.923401 325.473267,767.613525 
	C322.859161,765.553833 319.898590,765.448914 317.189850,767.526062 
	C314.701721,769.434143 314.400146,772.202698 315.792236,774.696411 
	C317.587463,777.912415 320.697937,778.354614 324.046570,777.238831 
	C324.667969,777.031738 325.226929,776.637207 326.412140,775.839539 
M346.175903,713.681641 
	C349.015900,713.253357 351.100891,711.738770 350.434448,708.754211 
	C349.640411,705.198303 347.021088,703.164978 343.229126,703.090759 
	C340.469666,703.036743 338.861267,704.616028 338.468445,707.205017 
	C337.950439,710.619385 340.086975,712.374939 342.960083,713.417725 
	C343.713013,713.690918 344.588623,713.626038 346.175903,713.681641 
z"/>
<path fill="#000000" opacity="1.000000" stroke="none" 
	d="
M433.896912,747.475342 
	C435.577972,750.962952 435.795868,754.151489 434.054230,757.659119 
	C430.501251,753.795044 430.482208,749.571594 433.896912,747.475342 
z"/>
<path fill="#000000" opacity="1.000000" stroke="none" 
	d="
M468.817383,723.142944 
	C465.261475,720.393616 465.057800,717.222412 468.157745,714.013489 
	C469.800659,716.983643 470.941315,719.792114 468.817383,723.142944 
z"/>
<path fill="#000000" opacity="1.000000" stroke="none" 
	d="
M549.396851,620.959595 
	C547.380920,624.702637 546.781799,628.963135 542.868103,631.230530 
	C543.394653,626.692627 545.534363,622.882141 548.428467,619.475586 
	C548.794678,619.044434 549.467468,619.900024 549.396851,620.959595 
z"/>
<path fill="#000000" opacity="1.000000" stroke="none" 
	d="
M499.031006,705.019653 
	C498.960083,704.886780 498.867889,704.750122 498.793060,704.604553 
	C497.045441,701.203369 498.194000,698.277466 500.468567,695.689575 
	C501.024292,695.057251 502.429352,695.601807 502.449921,696.354858 
	C502.533630,699.419434 502.703278,702.623413 499.312775,704.827148 
	C498.993866,704.997192 499.017822,705.011658 499.031006,705.019653 
z"/>
<path fill="#000000" opacity="1.000000" stroke="none" 
	d="
M475.101501,665.082764 
	C476.867065,661.466736 476.949219,657.456787 480.580139,653.508850 
	C479.804779,659.572083 478.595764,663.996765 476.577972,668.158691 
	C474.249786,667.791077 474.856110,666.510559 475.101501,665.082764 
z"/>
<path fill="#000000" opacity="1.000000" stroke="none" 
	d="
M432.406799,769.236572 
	C431.727295,765.746521 431.159210,762.559082 433.384094,759.634399 
	C436.499451,763.213623 436.054291,768.120728 432.406799,769.236572 
z"/>
<path fill="#000000" opacity="1.000000" stroke="none" 
	d="
M514.154724,640.475830 
	C515.112427,639.237793 515.566284,637.859558 518.027710,637.907715 
	C515.515747,642.694824 513.253601,647.005920 510.991394,651.317017 
	C509.703552,646.924927 512.385559,644.037292 514.154724,640.475830 
z"/>
<path fill="#000000" opacity="1.000000" stroke="none" 
	d="
M574.921631,643.965027 
	C576.857056,643.248962 578.405640,642.011169 580.481873,643.275574 
	C579.736267,647.100220 576.534912,647.197876 573.881836,647.927063 
	C573.518005,648.027039 572.619202,647.342651 572.473450,646.866638 
	C571.928284,645.086792 573.581482,644.810486 574.921631,643.965027 
z"/>
<path fill="#000000" opacity="1.000000" stroke="none" 
	d="
M503.911499,685.290710 
	C504.482910,685.858826 504.971161,686.354919 504.881409,686.700989 
	C504.264465,689.078796 505.310333,692.094055 502.422028,693.588135 
	C502.119324,693.744690 500.935181,693.087341 500.918091,692.767151 
	C500.765076,689.899414 500.314301,686.856079 503.911499,685.290710 
z"/>
<path fill="#000000" opacity="1.000000" stroke="none" 
	d="
M559.813965,643.847168 
	C560.349792,642.089050 560.751404,640.146973 562.699219,640.884338 
	C565.094788,641.791321 563.824158,643.983643 563.567261,645.643127 
	C563.364502,646.953003 562.816895,648.486389 561.115112,648.188538 
	C558.551270,647.739990 559.673889,645.722473 559.813965,643.847168 
z"/>
<path fill="#000000" opacity="1.000000" stroke="none" 
	d="
M431.072266,742.340942 
	C430.831604,737.871704 430.831604,737.871704 432.051544,735.026184 
	C433.913513,736.821167 435.143005,741.937683 433.907593,743.518860 
	C432.573883,745.225891 431.761017,744.099548 431.072266,742.340942 
z"/>
<path fill="#000000" opacity="1.000000" stroke="none" 
	d="
M530.854126,677.460938 
	C530.598572,676.507874 530.397095,675.812683 530.553894,675.210815 
	C531.017822,673.429810 530.425659,670.831360 533.309082,670.680481 
	C534.425171,670.622070 535.086121,671.945129 534.714722,672.884216 
	C533.960632,674.791077 535.430725,678.529846 530.854126,677.460938 
z"/>
<path fill="#000000" opacity="1.000000" stroke="none" 
	d="
M436.539795,697.676025 
	C435.280457,700.650269 435.352142,703.748779 433.421112,706.239380 
	C431.605591,702.625061 433.401825,696.825562 437.339783,693.167297 
	C438.190491,694.758789 436.980530,695.977356 436.539795,697.676025 
z"/>
<path fill="#000000" opacity="1.000000" stroke="none" 
	d="
M584.642212,643.662476 
	C581.928772,643.640564 580.964233,642.457520 583.014893,640.890686 
	C584.837463,639.498169 587.092285,638.145203 589.944580,639.101379 
	C589.909363,642.515198 586.862305,642.401062 584.642212,643.662476 
z"/>
<path fill="#000000" opacity="1.000000" stroke="none" 
	d="
M534.048828,661.140625 
	C537.165588,663.988831 535.814209,666.410645 533.828857,669.402466 
	C530.804138,666.175354 532.010010,663.677673 534.048828,661.140625 
z"/>
<path fill="#000000" opacity="1.000000" stroke="none" 
	d="
M506.189301,675.154663 
	C506.629333,678.161133 506.860229,680.906311 504.431915,683.035767 
	C501.855286,679.212646 502.436554,676.378052 506.189301,675.154663 
z"/>
<path fill="#000000" opacity="1.000000" stroke="none" 
	d="
M469.181824,705.416870 
	C469.164368,707.988098 469.917816,710.364868 467.598267,712.259277 
	C464.732208,709.625610 465.351013,706.635742 466.547058,704.124146 
	C467.422485,702.285828 468.619171,703.540100 469.181824,705.416870 
z"/>
<path fill="#000000" opacity="1.000000" stroke="none" 
	d="
M561.761963,633.968506 
	C562.062622,632.425293 562.392212,631.264954 563.962524,631.605957 
	C564.907227,631.811157 565.204407,632.664001 565.125183,633.503357 
	C564.935669,635.510925 565.274170,637.760986 563.139160,639.108154 
	C560.581116,637.964111 562.013977,635.920044 561.761963,633.968506 
z"/>
<path fill="#000000" opacity="1.000000" stroke="none" 
	d="
M616.721191,614.395752 
	C616.101379,615.767517 615.647888,616.837585 613.854736,616.781006 
	C613.866333,612.621887 615.864441,609.493164 618.297424,605.330566 
	C618.874634,609.257874 617.584412,611.606262 616.721191,614.395752 
z"/>
<path fill="#000000" opacity="1.000000" stroke="none" 
	d="
M470.059509,696.024414 
	C469.725342,697.975952 469.952118,699.756592 467.797821,700.897583 
	C466.049988,697.766602 466.223511,695.029175 468.515717,692.372559 
	C470.601532,692.907349 470.024475,694.402161 470.059509,696.024414 
z"/>
<path fill="#000000" opacity="1.000000" stroke="none" 
	d="
M532.954712,656.781006 
	C533.046265,654.321838 533.296143,652.318787 535.449646,650.786621 
	C537.430420,653.453430 536.523132,655.915771 535.560120,657.912598 
	C534.697083,659.702148 533.501343,658.737305 532.954712,656.781006 
z"/>
<path fill="#000000" opacity="1.000000" stroke="none" 
	d="
M504.628479,669.309204 
	C504.962799,667.180786 505.114471,665.344727 506.971252,663.630920 
	C508.985474,667.063049 508.071472,669.774536 506.214142,672.448975 
	C504.179565,672.077271 504.587952,670.773376 504.628479,669.309204 
z"/>
<path fill="#000000" opacity="1.000000" stroke="none" 
	d="
M596.916138,637.928833 
	C595.189636,638.779907 593.862427,639.988708 591.545166,638.714539 
	C593.209656,635.517822 595.978638,634.742310 599.085327,634.304199 
	C600.185547,636.693359 598.198059,636.913757 596.916138,637.928833 
z"/>
<path fill="#000000" opacity="1.000000" stroke="none" 
	d="
M466.477081,761.963928 
	C467.315430,757.766235 470.011108,757.964722 473.593567,758.800354 
	C471.888885,762.085327 469.373474,762.240173 466.477081,761.963928 
z"/>
<path fill="#000000" opacity="1.000000" stroke="none" 
	d="
M518.878784,706.035278 
	C520.464478,706.203003 521.815125,706.718994 521.268127,708.083923 
	C520.498352,710.004700 518.328674,709.746887 516.645752,710.017273 
	C515.586426,710.187378 514.613831,709.564148 514.773376,708.369629 
	C515.060730,706.218750 516.988159,706.374329 518.878784,706.035278 
z"/>
<path fill="#000000" opacity="1.000000" stroke="none" 
	d="
M442.196289,794.196289 
	C444.111420,792.291626 445.884460,790.616455 449.130615,792.049255 
	C447.020905,794.478516 445.679047,797.412048 442.196289,794.196289 
z"/>
<path fill="#000000" opacity="1.000000" stroke="none" 
	d="
M607.712158,629.272217 
	C606.063782,631.559204 604.723022,633.906982 601.577881,633.947144 
	C602.688110,629.457642 604.708252,627.891541 607.712158,629.272217 
z"/>
<path fill="#000000" opacity="1.000000" stroke="none" 
	d="
M567.196167,601.648682 
	C565.602478,597.496094 568.302429,594.557129 569.771118,591.242432 
	C570.220764,595.008179 569.467773,598.488708 567.196167,601.648682 
z"/>
<path fill="#000000" opacity="1.000000" stroke="none" 
	d="
M554.998169,674.998169 
	C556.632263,672.416504 559.206299,672.438782 561.837341,672.344666 
	C561.387451,676.109375 560.281555,676.615784 555.286255,675.168701 
	C554.967468,674.944275 554.988098,674.980347 554.998169,674.998169 
z"/>
<path fill="#000000" opacity="1.000000" stroke="none" 
	d="
M478.667175,759.966431 
	C476.989410,760.093628 475.636810,760.283508 475.138702,758.399231 
	C477.210602,756.271057 479.544189,756.411316 482.042145,757.281128 
	C482.164246,759.757812 480.294006,759.436035 478.667175,759.966431 
z"/>
<path fill="#000000" opacity="1.000000" stroke="none" 
	d="
M562.787964,625.324951 
	C562.995605,623.957520 563.148560,622.972290 564.291504,622.613770 
	C566.694153,625.925476 566.656982,626.620972 563.867615,629.609131 
	C562.205200,628.678650 562.887512,627.073425 562.787964,625.324951 
z"/>
<path fill="#000000" opacity="1.000000" stroke="none" 
	d="
M473.383301,678.084595 
	C470.680176,676.653809 471.000549,674.667358 474.684723,670.460632 
	C476.126282,673.367065 474.223541,675.520142 473.383301,678.084595 
z"/>
<path fill="#000000" opacity="1.000000" stroke="none" 
	d="
M471.799316,685.560303 
	C471.166229,687.255005 471.449585,688.994202 469.409302,689.865173 
	C467.431854,686.609619 469.619232,684.180725 470.523132,681.094421 
	C472.844818,682.366333 472.056610,683.867615 471.799316,685.560303 
z"/>
<path fill="#000000" opacity="1.000000" stroke="none" 
	d="
M611.171509,620.289307 
	C612.441223,619.089661 613.843994,618.704102 613.411865,620.639221 
	C612.891479,622.969543 611.980225,625.543335 608.779602,626.415405 
	C608.031311,623.638550 610.092590,622.311523 611.171509,620.289307 
z"/>
<path fill="#000000" opacity="1.000000" stroke="none" 
	d="
M535.342773,648.883667 
	C534.940674,646.000488 535.678284,643.706299 538.257141,642.130737 
	C538.267761,644.751099 539.358887,647.703430 535.342773,648.883667 
z"/>
<path fill="#000000" opacity="1.000000" stroke="none" 
	d="
M506.705933,658.611145 
	C507.422211,656.683899 507.200531,654.579163 509.650879,653.677979 
	C510.509949,656.848450 509.559357,659.382080 508.023987,661.825562 
	C506.051422,661.368530 506.691742,660.033020 506.705933,658.611145 
z"/>
<path fill="#000000" opacity="1.000000" stroke="none" 
	d="
M433.322632,726.945190 
	C433.095001,728.715698 433.869476,730.369507 431.798737,731.480103 
	C429.657959,728.439819 430.816193,725.463379 431.047760,722.215637 
	C433.970703,723.123779 432.999725,725.083130 433.322632,726.945190 
z"/>
<path fill="#000000" opacity="1.000000" stroke="none" 
	d="
M430.930847,712.487671 
	C431.133301,711.112122 431.257935,710.107422 432.744415,709.793518 
	C433.626343,712.707458 433.678009,715.498413 432.477875,718.627869 
	C429.666199,717.090210 431.147247,714.748535 430.930847,712.487671 
z"/>
<path fill="#000000" opacity="1.000000" stroke="none" 
	d="
M488.290222,758.169922 
	C486.745514,758.175476 485.336304,758.917664 484.400452,757.096436 
	C486.247040,754.801270 488.774933,755.443542 491.090759,754.936218 
	C491.741577,757.800354 489.816315,757.591309 488.290222,758.169922 
z"/>
<path fill="#000000" opacity="1.000000" stroke="none" 
	d="
M524.682617,705.957764 
	C526.753845,705.898010 528.689880,705.096130 529.971252,707.340942 
	C528.347107,709.315613 526.324280,709.265381 524.317444,708.360718 
	C523.188721,707.851990 523.270508,706.844360 524.682617,705.957764 
z"/>
<path fill="#000000" opacity="1.000000" stroke="none" 
	d="
M408.253662,191.443466 
	C406.458771,191.682434 405.047363,192.436661 402.542542,191.223587 
	C405.602905,189.277161 408.255615,188.579025 411.455414,188.626556 
	C411.563904,190.966812 409.895294,190.962006 408.253662,191.443466 
z"/>
<path fill="#000000" opacity="1.000000" stroke="none" 
	d="
M765.985840,460.707458 
	C765.047546,462.189117 764.625305,463.693634 762.488098,464.509918 
	C763.047913,461.121155 763.627563,458.403748 766.001343,456.281525 
	C767.923401,457.849945 766.568970,459.122284 765.985840,460.707458 
z"/>
<path fill="#000000" opacity="1.000000" stroke="none" 
	d="
M707.016602,427.829895 
	C711.650635,425.979797 715.638184,423.293549 720.719727,423.962982 
	C714.404175,427.823700 707.160583,429.628693 700.758728,433.350800 
	C701.551941,430.010193 704.388062,429.319244 707.016602,427.829895 
z"/>
<path fill="#000000" opacity="1.000000" stroke="none" 
	d="
M689.687439,393.706299 
	C691.029724,393.929840 692.184753,393.754700 692.476929,395.509857 
	C689.083313,396.711578 685.770508,396.437622 681.680847,395.426208 
	C684.365295,393.075348 686.926514,393.885437 689.687439,393.706299 
z"/>
<path fill="#000000" opacity="1.000000" stroke="none" 
	d="
M716.125366,441.140869 
	C713.638062,443.781006 710.755005,445.779114 706.215881,446.746979 
	C708.767639,443.076172 711.595337,441.509583 715.303589,440.630981 
	C715.656250,440.565094 715.968506,440.949310 716.125366,441.140869 
z"/>
<path fill="#000000" opacity="1.000000" stroke="none" 
	d="
M728.833740,404.373840 
	C729.926941,401.137421 730.342468,401.055878 734.950378,403.066345 
	C733.550903,405.921783 731.323608,405.206787 728.833740,404.373840 
z"/>
<path fill="#000000" opacity="1.000000" stroke="none" 
	d="
M720.293884,401.614441 
	C722.819031,400.823364 724.890015,400.940918 727.008057,403.555939 
	C723.956848,404.077698 721.321289,406.302338 720.293884,401.614441 
z"/>
<path fill="#000000" opacity="1.000000" stroke="none" 
	d="
M814.868408,362.037018 
	C809.722961,366.239868 804.844177,370.229858 799.965393,374.219879 
	C799.652588,373.832916 799.339844,373.445953 799.027100,373.058990 
	C803.665405,366.338898 810.512878,362.176117 817.657654,357.389679 
	C818.101196,360.291412 816.154480,360.757446 814.868408,362.037018 
z"/>
<path fill="#000000" opacity="1.000000" stroke="none" 
	d="
M822.553833,394.732147 
	C823.598511,395.627930 824.325195,396.822754 822.656799,396.775909 
	C820.517761,396.715881 818.082397,396.577087 816.247314,394.190979 
	C818.622559,392.627991 820.443115,393.782928 822.553833,394.732147 
z"/>
</svg>