<svg version="1.1" id="Layer_1" xmlns="http://www.w3.org/2000/svg" xmlns:xlink="http://www.w3.org/1999/xlink" x="0px" y="0px"
	 width="100%" viewBox="0 0 348 652" enable-background="new 0 0 348 652" xml:space="preserve">
<path fill="none" opacity="1.000000" stroke="#000000" stroke-linecap="round" stroke-linejoin="round" stroke-width="13.000000"
	d="
M160.000000,420.500000 
	C164.936523,426.165619 169.033340,432.320068 171.533463,439.488312 
	C172.699036,442.830200 172.002304,446.157593 172.001968,449.500000 
	C171.998688,481.833344 171.919601,514.167053 172.077744,546.499634 
	C172.104660,552.002319 173.925232,557.496216 172.020355,563.007019 
	C171.865967,563.453674 171.785568,564.177551 172.031189,564.474182 
	C179.237869,573.176331 175.879501,583.330505 175.995834,593.000061 
	C176.023895,595.333008 176.260513,597.703491 175.937317,599.991150 
	C175.482101,603.213257 172.405945,605.411133 169.500000,605.000000 
	C165.262558,604.400513 164.496674,602.864685 164.416031,598.501526 
	C164.239700,588.961365 168.921844,580.121887 168.118286,570.490112 
	C167.968887,568.699463 169.412415,566.814087 171.000000,565.500000 
"/>
<path fill="none" opacity="1.000000" stroke="#000000" stroke-linecap="round" stroke-linejoin="round" stroke-width="3.000000"
	d="
M150.500000,599.500000 
	C150.500000,602.502563 150.500000,605.505127 150.500000,609.166504 
	C147.833694,608.250977 146.625595,610.414734 144.505295,610.571533 
	C141.937103,610.761414 139.573486,612.336487 137.325272,609.122192 
	C136.221085,607.543579 133.337524,608.142517 130.986847,608.353516 
	C123.858109,608.993469 116.644272,611.393372 109.528374,608.918457 
	C105.153015,607.396545 102.142052,608.053101 99.401932,611.930725 
	C97.921829,614.025208 95.014664,614.398621 92.502731,615.011230 
	C86.234100,616.540100 80.014809,618.318481 73.500000,618.500000 
"/>
<path fill="none" opacity="1.000000" stroke="#000000" stroke-linecap="round" stroke-linejoin="round" stroke-width="5.000000"
	d="
M99.250000,462.000000 
	C100.940483,458.557556 104.624825,458.804626 107.420502,457.347473 
	C114.196037,453.815948 120.625984,449.449493 125.868904,443.876678 
	C128.586426,440.988159 131.557968,438.912628 135.028091,437.572723 
	C140.023987,435.643707 144.295135,432.642212 148.466400,429.455994 
	C149.846375,428.401917 151.233154,427.014618 151.933548,425.469849 
	C155.773529,417.000824 161.986053,410.025421 166.469574,401.983032 
	C169.299255,396.907257 171.927307,391.712128 174.458847,386.480103 
	C175.657654,384.002502 176.416962,381.393127 176.639526,378.510773 
	C176.836838,375.955231 177.056854,373.996521 175.659317,371.413788 
	C171.487289,363.703705 176.352692,354.247131 185.020050,352.605835 
	C186.376709,352.348938 188.256836,353.165039 189.442856,354.074524 
	C191.482666,355.638580 193.307709,357.547302 194.976700,359.519714 
	C204.541122,370.822754 218.353806,376.141022 230.087982,384.374634 
	C232.874634,386.329926 234.270172,388.497498 235.000000,391.500000 
"/>
<path fill="none" opacity="1.000000" stroke="#000000" stroke-linecap="round" stroke-linejoin="round" stroke-width="3.000000"
	d="
M253.500000,601.500000 
	C246.384659,600.264404 239.213531,599.452209 232.003922,600.047424 
	C224.486359,600.668091 217.000000,601.666687 209.500000,602.500000 
"/>
<path fill="none" opacity="1.000000" stroke="#000000" stroke-linecap="round" stroke-linejoin="round" stroke-width="4.000000"
	d="
M114.500000,299.000000 
	C111.173508,303.603943 105.960770,304.465546 100.982628,305.408264 
	C97.024414,306.157867 93.186577,306.902130 90.008224,309.510040 
	C84.777069,313.802277 78.777672,314.055023 72.500000,313.000000 
"/>
<path fill="none" opacity="1.000000" stroke="#000000" stroke-linecap="round" stroke-linejoin="round" stroke-width="5.000000"
	d="
M172.000000,372.000000 
	C168.941818,372.569702 166.580551,373.964417 164.424561,376.434143 
	C156.301880,385.738678 145.032990,391.249817 135.974213,399.471588 
	C133.814575,401.431732 131.333328,400.792572 129.000000,399.500000 
"/>
<path fill="none" opacity="1.000000" stroke="#000000" stroke-linecap="round" stroke-linejoin="round" stroke-width="4.000000"
	d="
M110.500000,391.000000 
	C106.167519,394.836517 101.594055,396.650635 95.453087,395.198395 
	C91.000015,394.145325 86.708794,394.218933 82.780663,390.748260 
	C80.484291,388.719299 76.000069,388.655029 72.499977,388.654541 
	C69.449646,388.654114 66.586945,386.601715 63.500000,388.000000 
"/>
<path fill="none" opacity="1.000000" stroke="#000000" stroke-linecap="round" stroke-linejoin="round" stroke-width="5.000000"
	d="
M179.500000,288.500000 
	C186.835159,290.309845 191.241928,296.390594 196.997864,300.502991 
	C201.175446,303.487701 205.555298,306.241455 209.436646,309.573792 
	C213.206238,312.810211 216.432404,316.583862 219.134628,320.916016 
	C221.380142,324.516022 220.363022,325.898773 217.000000,327.000000 
"/>
<path fill="none" opacity="1.000000" stroke="#000000" stroke-linecap="round" stroke-linejoin="round" stroke-width="3.000000"
	d="
M205.500000,316.500000 
	C209.733246,319.245544 213.163971,322.655609 215.017273,327.493378 
	C216.753113,332.024475 220.917419,333.464539 225.017700,334.424408 
	C232.187317,336.102875 239.164307,338.498535 245.369385,342.217896 
	C248.900833,344.334686 251.918228,347.643890 255.500000,350.000000 
"/>
<path fill="none" opacity="1.000000" stroke="#000000" stroke-linecap="round" stroke-linejoin="round" stroke-width="8.000000"
	d="
M199.000000,273.000000 
	C203.900742,272.460876 208.134079,273.571716 211.525970,277.477448 
	C216.182663,282.839539 221.946777,287.327423 228.157166,290.154785 
	C233.086075,292.398773 237.899323,295.147888 243.034378,296.899200 
	C249.017929,298.939880 253.597336,303.365173 259.417358,305.705505 
	C261.455048,306.524872 263.349976,307.283356 265.500000,307.500000 
"/>
<path fill="none" opacity="1.000000" stroke="#000000" stroke-linecap="round" stroke-linejoin="round" stroke-width="5.000000"
	d="
M73.500000,451.000000 
	C71.322922,453.305573 68.579285,453.643921 65.527557,454.162231 
	C57.550331,455.517151 49.496620,455.972961 41.500000,457.000000 
"/>
<path fill="none" opacity="1.000000" stroke="#000000" stroke-linecap="round" stroke-linejoin="round" stroke-width="14.000000"
	d="
M176.000000,194.500000 
	C180.387253,197.833908 182.899612,201.958969 180.414749,207.461502 
	C179.379654,209.753616 180.279755,211.906601 180.229065,214.005539 
	C180.076126,220.338272 176.569427,223.610474 171.495712,225.990860 
	C163.502182,229.741104 157.287354,235.292603 151.779770,242.327591 
	C147.470612,247.831787 140.451080,250.284241 133.534164,252.128159 
	C132.068115,252.518967 129.636185,251.389755 129.000000,254.000000 
"/>
<path fill="none" opacity="1.000000" stroke="#000000" stroke-linecap="round" stroke-linejoin="round" stroke-width="6.000000"
	d="
M156.000000,416.000000 
	C151.945068,416.060577 147.871323,415.517944 143.973923,417.447327 
	C141.285721,418.778168 138.662582,419.879791 137.468140,422.987762 
	C135.984131,426.849182 132.696152,429.071014 128.973450,429.877411 
	C124.331505,430.882965 120.619034,433.301208 117.026573,436.034912 
	C113.616463,438.629944 110.485352,439.607697 105.940796,438.189728 
	C98.889397,435.989624 91.860603,438.540710 85.005341,440.518494 
	C82.833664,441.145020 82.279976,443.199249 81.500000,445.000000 
"/>
<path fill="none" opacity="1.000000" stroke="#000000" stroke-linecap="round" stroke-linejoin="round" stroke-width="4.000000"
	d="
M218.000000,207.000000 
	C218.124634,201.258560 213.905548,198.115860 210.494339,194.505356 
	C206.493317,190.270569 200.590591,189.261612 195.928085,186.106262 
	C195.282608,185.669464 193.666672,186.666672 192.500000,187.000000 
"/>
<path fill="none" opacity="1.000000" stroke="#000000" stroke-linecap="round" stroke-linejoin="round" stroke-width="8.000000"
	d="
M183.500000,424.000000 
	C185.666672,423.000000 187.814819,421.957153 190.004532,421.010468 
	C192.954132,419.735260 193.183578,417.852417 192.095688,414.963959 
	C191.059601,412.213104 189.239380,409.916962 188.358032,407.043549 
	C187.545349,404.394043 183.299072,404.289368 181.500000,406.500000 
	C179.396164,409.085114 178.514008,418.279968 180.554672,420.958344 
	C184.765015,426.484436 186.277176,432.810883 187.709366,439.454865 
	C188.754425,444.302856 190.152069,449.411011 193.500000,453.500000 
"/>
<path fill="none" opacity="1.000000" stroke="#000000" stroke-linecap="round" stroke-linejoin="round" stroke-width="11.000000"
	d="
M183.000000,357.000000 
	C189.379272,363.491882 194.927994,370.618866 199.512482,378.492737 
	C200.248108,379.756165 201.207947,380.894257 201.002533,382.500336 
	C200.361023,387.516388 204.262390,391.560089 204.023773,396.501160 
	C204.008087,396.825684 204.251328,397.262390 204.512146,397.485809 
	C209.469009,401.732361 207.307022,407.799164 208.482132,413.004028 
	C209.663849,418.238159 208.455338,420.262115 204.577789,423.106049 
	C202.001022,424.995941 200.150314,424.199677 198.005234,422.990723 
	C196.312607,422.036774 194.666672,421.000000 193.000000,420.000000 
"/>
<path fill="none" opacity="1.000000" stroke="#000000" stroke-linecap="round" stroke-linejoin="round" stroke-width="5.000000"
	d="
M149.500000,277.000000 
	C147.322144,278.805359 144.937607,279.735260 142.018539,280.135284 
	C138.193069,280.659546 134.419510,281.466705 131.862457,285.410828 
	C129.589233,288.917145 124.671623,290.346558 123.500000,295.000000 
"/>
<path fill="none" opacity="1.000000" stroke="#000000" stroke-linecap="round" stroke-linejoin="round" stroke-width="7.000000"
	d="
M183.500000,38.500000 
	C183.473816,45.975140 178.120316,52.335896 179.001862,59.999786 
	C179.155380,61.334629 178.837143,63.133797 179.580902,63.923840 
	C184.246902,68.880249 181.239197,72.662033 178.000000,76.500000 
"/>
<path fill="none" opacity="1.000000" stroke="#000000" stroke-linecap="round" stroke-linejoin="round" stroke-width="3.000000"
	d="
M287.000000,388.000000 
	C277.788239,391.553925 267.565308,392.579895 259.500000,399.000000 
"/>
<path fill="none" opacity="1.000000" stroke="#000000" stroke-linecap="round" stroke-linejoin="round" stroke-width="5.000000"
	d="
M148.000000,124.000000 
	C154.456833,125.805664 159.782822,130.481003 166.990112,130.757523 
	C169.630127,130.858826 172.385437,132.821915 175.478622,133.183075 
	C177.401337,133.407562 176.371292,139.269867 173.977371,140.454254 
	C172.773743,141.049744 171.033066,141.833206 170.049484,141.390137 
	C164.336487,138.816589 161.204956,142.873810 158.107651,146.103241 
	C156.226898,148.064240 154.330093,148.870117 152.010880,148.441177 
	C147.055069,147.524582 142.700394,150.040665 138.010498,150.589630 
	C136.444077,150.772995 135.000000,151.250702 133.500000,150.500000 
"/>
<path fill="none" opacity="1.000000" stroke="#000000" stroke-linecap="round" stroke-linejoin="round" stroke-width="4.000000"
	d="
M186.500000,334.000000 
	C188.879120,333.923462 190.703888,334.914734 192.546280,336.444244 
	C196.245850,339.515564 200.226776,342.212250 204.457016,344.576904 
	C206.735168,345.850372 208.943878,346.613922 211.500000,346.499847 
	C216.998199,346.254425 221.290787,348.720734 225.000000,352.500000 
"/>
<path fill="none" opacity="1.000000" stroke="#000000" stroke-linecap="round" stroke-linejoin="round" stroke-width="8.000000"
	d="
M158.500000,330.000000 
	C154.444122,329.526978 151.286560,330.803802 148.429611,333.935791 
	C143.685669,339.136475 136.105911,340.897247 132.224991,347.114807 
	C126.867279,344.404266 122.566360,345.817596 117.920273,348.878998 
	C111.411926,353.167511 106.968178,360.181458 99.023926,362.579254 
	C94.392509,363.977173 90.000000,366.166656 85.500000,368.000000 
"/>
<path fill="none" opacity="1.000000" stroke="#000000" stroke-linecap="round" stroke-linejoin="round" stroke-width="6.000000"
	d="
M173.500000,366.000000 
	C169.797989,365.085938 166.572647,366.115845 162.921036,367.244507 
	C155.872589,369.423096 150.814972,374.102448 145.566269,378.577728 
	C140.801392,382.640503 135.456329,385.646790 129.472565,386.206787 
	C126.461433,386.488586 123.675003,387.141266 121.037834,388.103668 
	C115.336578,390.184296 110.360107,390.899902 104.364189,387.759277 
	C98.286728,384.575989 91.368546,386.791046 85.000000,389.000000 
"/>
<path fill="none" opacity="1.000000" stroke="#000000" stroke-linecap="round" stroke-linejoin="round" stroke-width="5.000000"
	d="
M178.000000,374.500000 
	C183.588104,374.734833 188.658829,375.303253 191.670319,381.416107 
	C193.531845,385.194672 197.564087,386.315826 202.012833,385.044891 
	C207.409561,383.503174 211.735550,385.135590 215.592743,389.416443 
	C219.083435,393.290466 222.181747,398.006470 228.000000,399.000000 
"/>
<path fill="none" opacity="1.000000" stroke="#000000" stroke-linecap="round" stroke-linejoin="round" stroke-width="3.000000"
	d="
M100.500000,449.000000 
	C92.863785,452.910248 85.025085,455.200714 76.500000,452.000000 
"/>
<path fill="none" opacity="1.000000" stroke="#000000" stroke-linecap="round" stroke-linejoin="round" stroke-width="3.000000"
	d="
M193.500000,305.500000 
	C193.239914,310.911926 198.019974,313.271759 200.585403,316.940277 
	C201.618683,318.417786 203.272552,319.551361 204.597137,320.904938 
	C206.903595,323.261841 208.233353,325.535431 208.145599,329.003693 
	C208.090225,331.192261 209.049271,333.464752 210.405045,335.561401 
	C212.434113,338.699280 214.042801,342.166229 214.500000,346.000000 
"/>
<path fill="none" opacity="1.000000" stroke="#000000" stroke-linecap="round" stroke-linejoin="round" stroke-width="5.000000"
	d="
M75.000000,449.000000 
	C78.183861,446.042328 81.432877,444.728577 86.069000,446.295898 
	C88.860313,447.239532 92.338074,446.227783 95.498665,445.982788 
	C98.641815,445.739105 101.628578,446.228516 104.500000,447.500000 
"/>
<path fill="none" opacity="1.000000" stroke="#000000" stroke-linecap="round" stroke-linejoin="round" stroke-width="4.000000"
	d="
M249.000000,306.500000 
	C244.733704,311.714142 237.591690,310.593781 232.493744,313.990601 
	C230.754303,315.149597 228.338699,315.093170 227.000000,317.000000 
"/>
<path fill="none" opacity="1.000000" stroke="#000000" stroke-linecap="round" stroke-linejoin="round" stroke-width="8.000000"
	d="
M177.000000,184.500000 
	C180.006012,184.558578 182.998123,184.370850 186.007935,184.959427 
	C192.472855,186.223694 195.469864,190.746750 196.957504,196.510971 
	C199.065948,204.680756 206.386688,210.197586 214.449738,208.287796 
	C217.901917,207.470123 220.228897,208.268234 222.456024,210.054810 
	C227.349457,213.980240 232.753098,214.205704 238.500000,213.000000 
"/>
<path fill="none" opacity="1.000000" stroke="#000000" stroke-linecap="round" stroke-linejoin="round" stroke-width="8.000000"
	d="
M177.500000,324.500000 
	C181.341507,327.981110 185.130035,331.081665 186.298569,336.940460 
	C187.104904,340.983368 190.251587,344.872620 194.031189,347.454346 
	C195.736450,348.619171 197.390030,349.633087 198.539322,351.475464 
	C200.946548,355.334412 204.287384,358.003876 209.000595,358.494354 
	C214.493744,359.066010 219.539856,363.875946 225.539627,360.062347 
	C226.979248,359.147339 228.262665,360.754547 229.498276,361.502838 
	C235.844360,365.346161 242.285614,368.986420 249.500000,371.000000 
"/>
<path fill="none" opacity="1.000000" stroke="#000000" stroke-linecap="round" stroke-linejoin="round" stroke-width="11.000000"
	d="
M118.500000,213.500000 
	C127.444702,212.788406 133.975174,207.138611 141.976334,202.667908 
	C134.325089,197.437286 127.155663,193.610855 118.500000,193.500000 
"/>
<path fill="none" opacity="1.000000" stroke="#000000" stroke-linecap="round" stroke-linejoin="round" stroke-width="6.000000"
	d="
M176.500000,343.500000 
	C175.604202,339.804901 175.618835,335.853485 173.492279,332.504913 
	C172.035614,330.211090 173.818024,328.493530 174.833618,327.059204 
	C178.411255,322.006714 178.575195,317.264496 173.937698,311.709717 
	C169.718399,317.051727 162.494034,318.667328 160.281784,326.437866 
	C158.511597,332.655670 157.659256,339.499664 151.614883,344.149353 
	C146.575287,348.026031 141.343445,351.422485 135.413391,353.213196 
	C133.646973,353.746643 133.618393,355.010925 132.500000,355.500000 
"/>
<path fill="none" opacity="1.000000" stroke="#000000" stroke-linecap="round" stroke-linejoin="round" stroke-width="8.000000"
	d="
M178.000000,255.000000 
	C180.804413,257.039764 183.608841,259.079529 186.365646,261.084686 
	C194.307999,256.078979 196.350250,255.797302 203.396469,262.115448 
	C209.518341,267.604767 216.790207,271.132965 223.626343,275.292358 
	C229.796143,279.046295 231.047745,284.434052 232.000000,290.500000 
"/>
<path fill="none" opacity="1.000000" stroke="#000000" stroke-linecap="round" stroke-linejoin="round" stroke-width="5.000000"
	d="
M230.500000,242.500000 
	C227.340912,233.740845 220.999146,230.673141 211.989365,231.652191 
	C208.831253,231.995346 205.666046,231.040375 205.000000,227.000000 
"/>
<path fill="none" opacity="1.000000" stroke="#000000" stroke-linecap="round" stroke-linejoin="round" stroke-width="4.000000"
	d="
M204.500000,171.500000 
	C204.069305,169.197647 203.376968,167.480743 200.528427,166.867889 
	C198.058426,166.336472 195.781143,164.758804 193.514252,163.474838 
	C191.103455,162.109360 188.675720,161.515427 186.000000,162.500000 
"/>
<path fill="none" opacity="1.000000" stroke="#000000" stroke-linecap="round" stroke-linejoin="round" stroke-width="4.000000"
	d="
M238.000000,394.000000 
	C242.509796,398.200287 248.195557,400.716888 253.008270,404.489441 
	C256.445343,407.183716 259.343384,403.928680 262.500000,403.500000 
"/>
<path fill="none" opacity="1.000000" stroke="#000000" stroke-linecap="round" stroke-linejoin="round" stroke-width="10.000000"
	d="
M180.000000,243.000000 
	C178.238632,245.208084 178.247833,247.930847 178.048096,250.503738 
	C177.663513,255.457870 174.978867,258.238892 170.525574,260.062469 
	C165.674454,262.048950 163.859055,267.348572 160.017365,270.521027 
	C157.432861,272.655273 155.835632,276.387238 151.500000,275.500000 
"/>
<path fill="none" opacity="1.000000" stroke="#000000" stroke-linecap="round" stroke-linejoin="round" stroke-width="5.000000"
	d="
M258.500000,433.000000 
	C259.743805,431.090424 261.975433,430.915131 263.445923,431.613800 
	C267.760559,433.663727 273.045868,433.338013 276.573090,437.437103 
	C278.722137,439.934540 281.896637,441.577118 285.029114,442.387451 
	C290.476440,443.796661 294.932526,447.535400 300.500000,448.500000 
"/>
<path fill="none" opacity="1.000000" stroke="#000000" stroke-linecap="round" stroke-linejoin="round" stroke-width="5.000000"
	d="
M160.500000,323.500000 
	C154.150314,322.084930 148.423996,323.718994 142.986099,326.976807 
	C141.578476,327.820099 140.432083,328.142822 138.406479,327.201172 
	C134.648697,325.454254 130.729889,326.263733 127.992867,329.994751 
	C126.869293,331.526367 125.947243,333.419556 124.447952,334.422180 
	C119.751266,337.563019 119.616493,341.756195 121.000000,346.500000 
"/>
<path fill="none" opacity="1.000000" stroke="#000000" stroke-linecap="round" stroke-linejoin="round" stroke-width="3.000000"
	d="
M196.000000,84.500000 
	C194.469559,87.969559 191.535095,90.047432 188.490555,91.985161 
	C187.045517,92.904861 185.197433,93.373421 184.054443,94.552765 
	C179.962219,98.775154 175.036499,96.668083 170.507217,96.384712 
	C165.893890,96.096085 163.574905,92.503746 162.000000,88.500000 
"/>
<path fill="none" opacity="1.000000" stroke="#000000" stroke-linecap="round" stroke-linejoin="round" stroke-width="4.000000"
	d="
M209.000000,405.000000 
	C213.000000,407.000000 216.936493,409.141998 221.015121,410.966217 
	C226.894440,413.595825 229.327698,419.677032 233.983780,423.519653 
	C237.707367,426.592743 241.920135,429.259735 239.755371,435.587372 
	C239.214035,437.169678 241.540054,440.069550 243.057495,441.953705 
	C246.907913,446.734619 250.583786,451.566925 252.500000,457.500000 
"/>
<path fill="none" opacity="1.000000" stroke="#000000" stroke-linecap="round" stroke-linejoin="round" stroke-width="6.000000"
	d="
M54.500000,443.500000 
	C58.117878,445.405548 62.010410,445.609711 66.000618,445.531738 
	C69.767654,445.458191 73.176392,446.266785 74.500000,450.500000 
"/>
<path fill="none" opacity="1.000000" stroke="#000000" stroke-linecap="round" stroke-linejoin="round" stroke-width="6.000000"
	d="
M291.000000,444.000000 
	C294.602234,439.163330 293.364746,435.859192 287.502869,434.487701 
	C283.854950,433.634216 280.275848,431.764984 276.500000,434.000000 
"/>
<path fill="none" opacity="1.000000" stroke="#000000" stroke-linecap="round" stroke-linejoin="round" stroke-width="9.000000"
	d="
M187.000000,261.500000 
	C187.000000,263.333344 186.965057,265.167480 187.008972,266.999786 
	C187.062363,269.228119 186.887070,270.592346 184.070969,271.683197 
	C177.839569,274.097046 176.339096,277.844727 178.052521,284.486450 
	C178.974625,288.060852 178.125961,290.213409 175.110352,292.637299 
	C170.361847,296.454102 166.500702,301.354126 161.936417,305.428772 
	C159.251419,307.825775 156.561951,310.749542 151.944916,308.886505 
	C149.766068,308.007324 147.000000,308.583344 144.500000,308.500000 
"/>
<path fill="none" opacity="1.000000" stroke="#000000" stroke-linecap="round" stroke-linejoin="round" stroke-width="5.000000"
	d="
M139.500000,285.500000 
	C139.399307,286.183167 139.526520,286.801483 139.044434,287.529419 
	C132.107285,298.004761 123.745468,306.769531 111.500000,311.000000 
"/>
<path fill="none" opacity="1.000000" stroke="#000000" stroke-linecap="round" stroke-linejoin="round" stroke-width="5.000000"
	d="
M173.500000,390.500000 
	C176.013885,390.930573 178.377350,391.871338 180.992859,392.086761 
	C186.225006,392.517731 188.821259,396.878998 191.335312,400.610931 
	C192.658676,402.575439 190.761566,404.854797 188.500000,406.000000 
"/>
<path fill="none" opacity="1.000000" stroke="#000000" stroke-linecap="round" stroke-linejoin="round" stroke-width="5.000000"
	d="
M202.000000,425.000000 
	C201.794876,427.982056 202.964111,430.526733 205.036392,432.460999 
	C208.829773,436.001709 211.690247,440.487671 216.452606,443.086853 
	C218.789688,444.362335 219.953171,447.019592 221.000000,449.500000 
"/>
<path fill="none" opacity="1.000000" stroke="#000000" stroke-linecap="round" stroke-linejoin="round" stroke-width="4.000000"
	d="
M111.500000,352.750000 
	C110.152275,350.410187 107.663551,350.095520 105.500099,350.097687 
	C101.166428,350.102051 96.833336,350.666687 92.500000,351.000031 
"/>
<path fill="none" opacity="1.000000" stroke="#000000" stroke-linecap="round" stroke-linejoin="round" stroke-width="4.000000"
	d="
M175.500000,340.500000 
	C169.325089,344.478607 164.058334,349.145203 163.000000,357.000000 
"/>
<path fill="none" opacity="1.000000" stroke="#000000" stroke-linecap="round" stroke-linejoin="round" stroke-width="6.000000"
	d="
M164.500000,238.000000 
	C169.406204,243.464859 169.960922,243.696655 175.956604,240.420578 
	C177.680984,239.478363 179.517853,239.035706 180.950119,239.621887 
	C183.628601,240.718124 185.868118,239.290878 186.845901,237.892273 
	C189.647980,233.884155 193.498306,234.016373 197.500000,234.000000 
"/>
<path fill="none" opacity="1.000000" stroke="#000000" stroke-linecap="round" stroke-linejoin="round" stroke-width="9.000000"
	d="
M185.500000,165.000000 
	C184.536148,157.570496 180.148911,155.000778 174.574615,159.101440 
	C170.717072,161.939224 165.536026,163.604492 164.000000,169.000000 
"/>
<path fill="none" opacity="1.000000" stroke="#000000" stroke-linecap="round" stroke-linejoin="round" stroke-width="3.000000"
	d="
M201.000000,109.000000 
	C195.948456,113.753677 189.812012,113.760887 183.500000,113.000000 
"/>
<path fill="none" opacity="1.000000" stroke="#000000" stroke-linecap="round" stroke-linejoin="round" stroke-width="4.000000"
	d="
M98.500000,397.000000 
	C98.325012,398.995850 96.444435,399.992676 95.883774,401.966980 
	C93.345772,410.904327 87.866203,415.125916 78.500000,416.000000 
"/>
<path fill="none" opacity="1.000000" stroke="#000000" stroke-linecap="round" stroke-linejoin="round" stroke-width="3.000000"
	d="
M176.000000,279.500000 
	C172.096085,278.165405 169.249634,279.775177 166.441650,282.438477 
	C164.038757,284.717560 161.532013,286.854614 159.470261,289.476624 
	C158.827911,290.293457 157.891708,291.313965 156.990692,291.423370 
	C150.214935,292.246307 148.528198,298.675995 144.500000,302.500000 
"/>
<path fill="none" opacity="1.000000" stroke="#000000" stroke-linecap="round" stroke-linejoin="round" stroke-width="4.000000"
	d="
M186.000000,272.000000 
	C186.952194,278.367493 191.430115,282.779633 196.177475,285.712738 
	C200.800690,288.569153 201.653992,292.054871 202.000000,296.500000 
"/>
<path fill="none" opacity="1.000000" stroke="#000000" stroke-linecap="round" stroke-linejoin="round" stroke-width="6.000000"
	d="
M262.500000,441.500000 
	C261.945221,437.022827 259.120880,433.998474 255.453186,432.089966 
	C250.851791,429.695557 246.278473,426.107635 240.500000,429.000000 
"/>
<path fill="none" opacity="1.000000" stroke="#000000" stroke-linecap="round" stroke-linejoin="round" stroke-width="5.000000"
	d="
M177.500000,292.000000 
	C180.189423,297.080475 178.484848,302.697968 179.375092,308.020905 
	C179.808243,310.610779 176.599121,311.099121 175.000000,312.500000 
"/>
<path fill="none" opacity="1.000000" stroke="#000000" stroke-linecap="round" stroke-linejoin="round" stroke-width="5.000000"
	d="
M191.500000,404.000000 
	C198.026016,407.799347 201.617126,414.258423 206.000000,420.000000 
"/>
<path fill="none" opacity="1.000000" stroke="#000000" stroke-linecap="round" stroke-linejoin="round" stroke-width="3.000000"
	d="
M222.000000,420.500000 
	C221.468170,422.911469 219.569382,423.385193 217.520050,424.060822 
	C212.154861,425.829620 211.158798,428.733032 214.004608,433.497253 
	C215.758224,436.432953 218.593918,439.014191 217.000000,443.000000 
"/>
<path fill="none" opacity="1.000000" stroke="#000000" stroke-linecap="round" stroke-linejoin="round" stroke-width="8.000000"
	d="
M209.500000,226.000000 
	C207.051361,225.281403 204.537430,226.617126 201.896240,225.192352 
	C200.307663,224.335388 197.845398,226.370346 197.161514,228.065170 
	C196.451019,229.825897 196.381485,232.877136 198.076248,233.869843 
	C204.601517,237.692047 204.294052,244.663544 206.545120,250.482544 
	C207.615997,253.250748 209.166672,255.833328 210.500000,258.500000 
"/>
<path fill="none" opacity="1.000000" stroke="#000000" stroke-linecap="round" stroke-linejoin="round" stroke-width="6.000000"
	d="
M139.500000,224.000000 
	C145.019669,225.945908 151.194809,226.089264 156.000000,230.000000 
"/>
<path fill="none" opacity="1.000000" stroke="#000000" stroke-linecap="round" stroke-linejoin="round" stroke-width="4.000000"
	d="
M180.500000,218.000000 
	C184.370056,219.340942 187.860519,221.195007 190.537872,224.469025 
	C192.076996,226.351166 193.819916,228.186798 196.500000,228.500000 
"/>
<path fill="none" opacity="1.000000" stroke="#000000" stroke-linecap="round" stroke-linejoin="round" stroke-width="10.000000"
	d="
M129.000000,252.500000 
	C124.603577,249.101135 120.540627,248.720459 116.548477,252.057983 
	C111.721916,256.093109 106.834526,256.345276 101.500000,253.500000 
"/>
<path fill="none" opacity="1.000000" stroke="#000000" stroke-linecap="round" stroke-linejoin="round" stroke-width="5.000000"
	d="
M173.000000,332.500000 
	C169.851212,333.025024 168.243393,335.780975 166.084854,337.600647 
	C163.219955,340.015808 160.352554,340.419830 157.000000,339.500000 
"/>
<path fill="none" opacity="1.000000" stroke="#000000" stroke-linecap="round" stroke-linejoin="round" stroke-width="4.000000"
	d="
M219.500000,248.000000 
	C222.693604,244.407257 228.483154,246.519821 231.555115,242.542572 
	C231.804214,242.220047 232.887131,242.332535 233.491425,242.526703 
	C238.007202,243.977585 242.500000,245.500000 247.000000,247.000000 
"/>
<path fill="none" opacity="1.000000" stroke="#000000" stroke-linecap="round" stroke-linejoin="round" stroke-width="4.000000"
	d="
M156.000000,276.000000 
	C158.832413,279.642822 158.670380,283.196655 155.475037,286.475677 
	C153.930298,288.060852 152.919479,289.751282 153.000000,292.000000 
"/>
<path fill="none" opacity="1.000000" stroke="#000000" stroke-linecap="round" stroke-linejoin="round" stroke-width="3.000000"
	d="
M155.500000,149.000000 
	C157.230118,152.592041 155.607559,154.906830 152.486603,156.473312 
	C150.221893,157.610031 147.833344,158.500000 145.500000,159.500000 
"/>
<path fill="none" opacity="1.000000" stroke="#000000" stroke-linecap="round" stroke-linejoin="round" stroke-width="7.000000"
	d="
M180.000000,169.500000 
	C178.953995,174.528152 176.251816,179.137146 176.353287,184.502777 
	C176.367676,185.264603 175.039276,186.840668 172.973175,186.072098 
	C167.496872,184.034912 162.830429,186.249847 158.500000,189.500000 
"/>
<path fill="none" opacity="1.000000" stroke="#000000" stroke-linecap="round" stroke-linejoin="round" stroke-width="4.000000"
	d="
M139.000000,329.500000 
	C135.666656,332.666656 132.351013,335.852234 128.992752,338.992249 
	C127.236366,340.634460 126.221886,342.536896 126.500000,345.000000 
"/>
<path fill="none" opacity="1.000000" stroke="#000000" stroke-linecap="round" stroke-linejoin="round" stroke-width="13.000000"
	d="
M174.500000,187.000000 
	C174.430054,193.633377 171.210358,196.826035 164.553741,198.251022 
	C160.087357,199.207138 156.161240,200.349930 151.448334,199.214462 
	C148.182190,198.427536 144.555573,200.074142 141.500000,202.000000 
"/>
<path fill="none" opacity="1.000000" stroke="#000000" stroke-linecap="round" stroke-linejoin="round" stroke-width="6.000000"
	d="
M188.000000,593.500000 
	C186.069687,599.417969 184.326721,605.418640 180.500000,610.500000 
"/>
<path fill="none" opacity="1.000000" stroke="#000000" stroke-linecap="round" stroke-linejoin="round" stroke-width="4.000000"
	d="
M150.500000,284.500000 
	C147.905014,288.498047 145.418823,292.466980 141.596283,295.616852 
	C138.637695,298.054779 135.959534,298.901215 132.500000,297.500000 
"/>
<path fill="none" opacity="1.000000" stroke="#000000" stroke-linecap="round" stroke-linejoin="round" stroke-width="5.000000"
	d="
M202.000000,310.000000 
	C197.812897,306.604828 193.063248,304.259705 187.353027,301.434875 
	C187.690338,307.144653 184.063171,312.053833 189.900024,316.142731 
	C191.839966,317.501709 193.117737,320.232422 193.535324,322.994659 
	C193.920319,325.541290 194.781204,327.923645 197.500000,329.000000 
"/>
<path fill="none" opacity="1.000000" stroke="#000000" stroke-linecap="round" stroke-linejoin="round" stroke-width="6.000000"
	d="
M160.000000,171.500000 
	C157.814621,175.165070 154.120010,176.757187 150.514755,178.530014 
	C148.590561,179.476227 145.415115,178.977219 145.500000,182.500000 
"/>
<path fill="none" opacity="1.000000" stroke="#000000" stroke-linecap="round" stroke-linejoin="round" stroke-width="8.000000"
	d="
M180.500000,97.500000 
	C180.833344,99.500000 180.776260,101.674919 181.578262,103.464935 
	C183.462387,107.670097 184.399078,111.207527 181.169556,115.623993 
	C177.757721,120.289825 180.380219,124.266838 185.391434,127.660316 
	C192.549118,132.507309 200.315338,133.666245 208.500000,134.000000 
"/>
<path fill="none" opacity="1.000000" stroke="#000000" stroke-linecap="round" stroke-linejoin="round" stroke-width="5.000000"
	d="
M219.000000,181.750000 
	C214.810806,182.009033 210.508362,182.752609 207.017303,179.481537 
	C205.988373,178.517441 205.077347,179.118668 203.996033,179.180038 
	C197.707016,179.536926 194.449982,177.168549 192.513824,170.995667 
	C191.344788,167.268494 187.656815,167.119492 185.533569,165.536972 
	C178.697250,168.652908 172.602341,172.845032 165.000000,169.500000 
	C160.136032,172.275681 156.074783,167.826904 151.500000,168.000000 
"/>
<path fill="none" opacity="1.000000" stroke="#000000" stroke-linecap="round" stroke-linejoin="round" stroke-width="4.000000"
	d="
M153.500000,238.500000 
	C145.068100,233.738083 136.774307,235.882385 128.500000,239.000000 
"/>
<path fill="none" opacity="1.000000" stroke="#000000" stroke-linecap="round" stroke-linejoin="round" stroke-width="5.000000"
	d="
M179.000000,150.000000 
	C175.816696,147.465286 170.537399,147.947678 166.539902,151.544357 
	C163.494308,154.284592 160.707306,155.564713 157.500000,152.000000 
"/>
<path fill="none" opacity="1.000000" stroke="#000000" stroke-linecap="round" stroke-linejoin="round" stroke-width="3.000000"
	d="
M188.000000,269.000000 
	C193.221375,269.955383 198.272659,270.938477 199.592331,277.481384 
	C200.075012,279.874512 202.121826,281.402283 204.470093,282.560638 
	C208.876068,284.733978 213.772339,286.695129 213.500000,293.000000 
"/>
<path fill="none" opacity="1.000000" stroke="#000000" stroke-linecap="round" stroke-linejoin="round" stroke-width="3.000000"
	d="
M164.500000,604.000000 
	C161.508957,608.376038 159.565384,613.041016 160.500000,618.500000 
"/>
<path fill="none" opacity="1.000000" stroke="#000000" stroke-linecap="round" stroke-linejoin="round" stroke-width="8.000000"
	d="
M180.500000,131.500000 
	C183.197556,135.212433 183.614029,140.013596 186.769943,143.697098 
	C188.027039,145.164368 188.722870,146.154556 190.497711,145.977097 
	C195.004608,145.526550 199.429337,146.647156 204.022781,146.317078 
	C207.575302,146.061829 211.673828,148.117355 214.919800,150.129364 
	C219.729767,153.110794 224.000000,152.791351 228.500000,150.000000 
"/>
<path fill="none" opacity="1.000000" stroke="#000000" stroke-linecap="round" stroke-linejoin="round" stroke-width="4.000000"
	d="
M158.500000,112.500000 
	C159.526047,111.287109 158.820908,108.695999 161.004227,108.578644 
	C163.653091,108.436264 166.962021,106.568565 168.864334,108.625465 
	C172.423904,112.474274 177.537033,111.703712 181.500000,114.000000 
"/>
<path fill="none" opacity="1.000000" stroke="#000000" stroke-linecap="round" stroke-linejoin="round" stroke-width="8.000000"
	d="
M136.500000,385.500000 
	C136.858246,388.415436 135.605515,390.570374 133.526779,392.528442 
	C130.637009,395.250427 128.361130,398.415985 127.750000,402.500000 
"/>
<path fill="none" opacity="1.000000" stroke="#000000" stroke-linecap="round" stroke-linejoin="round" stroke-width="5.000000"
	d="
M155.000000,310.000000 
	C155.303711,312.769012 153.158356,314.221130 151.435623,315.406433 
	C148.293808,317.567993 147.091370,320.534149 146.500000,324.000000 
"/>
<path fill="none" opacity="1.000000" stroke="#000000" stroke-linecap="round" stroke-linejoin="round" stroke-width="6.000000"
	d="
M123.000000,399.000000 
	C119.052498,401.614624 115.199379,404.540558 110.003166,403.484406 
	C108.532181,403.185425 107.965462,404.401031 106.974213,404.953766 
	C103.271187,407.018585 99.426445,408.713623 95.000000,407.500000 
"/>
<path fill="none" opacity="1.000000" stroke="#000000" stroke-linecap="round" stroke-linejoin="round" stroke-width="4.000000"
	d="
M214.500000,327.500000 
	C208.224075,329.820740 202.978607,328.693970 198.978561,323.015106 
	C197.690582,321.186584 195.914047,320.055786 193.500000,320.500000 
"/>
<path fill="none" opacity="1.000000" stroke="#000000" stroke-linecap="round" stroke-linejoin="round" stroke-width="4.000000"
	d="
M241.000000,330.500000 
	C241.000000,331.166656 240.720734,332.199158 241.042282,332.444611 
	C245.248291,335.655334 248.438416,340.730194 255.013992,339.579956 
	C257.763214,339.099060 260.666656,339.500000 263.500000,339.500000 
"/>
<path fill="none" opacity="1.000000" stroke="#000000" stroke-linecap="round" stroke-linejoin="round" stroke-width="3.000000"
	d="
M263.500000,394.000000 
	C254.385895,392.221191 245.308716,389.426849 236.000000,393.000000 
"/>
<path fill="none" opacity="1.000000" stroke="#000000" stroke-linecap="round" stroke-linejoin="round" stroke-width="4.000000"
	d="
M190.500000,73.500000 
	C189.923279,79.910484 185.062973,81.323471 180.000000,82.500000 
"/>
<path fill="none" opacity="1.000000" stroke="#000000" stroke-linecap="round" stroke-linejoin="round" stroke-width="7.000000"
	d="
M205.500000,241.000000 
	C211.447601,240.894318 215.370010,244.871750 218.802551,248.678055 
	C220.627792,250.702026 222.548584,252.608246 224.500000,254.500000 
"/>
<path fill="none" opacity="1.000000" stroke="#000000" stroke-linecap="round" stroke-linejoin="round" stroke-width="3.000000"
	d="
M205.000000,597.500000 
	C204.323837,604.033936 200.457840,606.058960 194.496078,602.998413 
	C195.261993,600.404785 197.807541,598.523010 197.500000,595.500000 
"/>
<path fill="none" opacity="1.000000" stroke="#000000" stroke-linecap="round" stroke-linejoin="round" stroke-width="3.000000"
	d="
M176.500000,354.000000 
	C174.000000,351.566711 171.626709,351.537872 168.957672,353.953217 
	C167.016342,355.710083 164.929153,357.524963 161.913208,357.500519 
	C161.275116,359.220886 161.011230,361.145660 159.513596,362.514862 
	C158.217438,363.699799 157.488327,365.552185 158.090012,366.961578 
	C160.500061,372.606781 157.870972,376.437408 154.022812,380.024475 
	C153.684265,380.340057 153.666687,381.000000 153.500015,381.500000 
"/>
<path fill="none" opacity="1.000000" stroke="#000000" stroke-linecap="round" stroke-linejoin="round" stroke-width="5.000000"
	d="
M214.500000,409.000000 
	C214.855682,415.035339 220.004745,419.961761 226.000000,419.998962 
	C227.166626,420.006195 228.333328,420.000000 229.500000,420.000000 
"/>
<path fill="none" opacity="1.000000" stroke="#000000" stroke-linecap="round" stroke-linejoin="round" stroke-width="4.000000"
	d="
M195.000015,133.500000 
	C194.666672,137.500000 194.333344,141.500000 194.000015,145.500000 
"/>
<path fill="none" opacity="1.000000" stroke="#000000" stroke-linecap="round" stroke-linejoin="round" stroke-width="3.000000"
	d="
M141.000000,204.000000 
	C141.263733,207.916000 143.455566,212.270203 138.500000,215.000000 
"/>
<path fill="none" opacity="1.000000" stroke="#000000" stroke-linecap="round" stroke-linejoin="round" stroke-width="6.000000"
	d="
M218.500000,317.500000 
	C222.169662,315.757812 225.619949,315.815704 228.471130,319.025635 
	C229.605362,320.302612 231.151932,320.690399 232.500626,321.498962 
	C234.413422,322.645721 236.120071,323.932617 236.000000,326.500000 
"/>
<path fill="none" opacity="1.000000" stroke="#000000" stroke-linecap="round" stroke-linejoin="round" stroke-width="3.000000"
	d="
M225.500000,299.000000 
	C222.290634,299.073792 220.080032,296.899048 217.480621,295.536987 
	C212.412033,292.881073 207.173386,290.593201 201.500000,289.500000 
"/>
<path fill="none" opacity="1.000000" stroke="#000000" stroke-linecap="round" stroke-linejoin="round" stroke-width="5.000000"
	d="
M242.000000,432.000000 
	C247.323868,434.655304 250.337265,441.189514 257.002716,441.422485 
	C262.307922,441.607910 266.432404,446.265839 272.000000,445.000000 
"/>
<path fill="none" opacity="1.000000" stroke="#000000" stroke-linecap="round" stroke-linejoin="round" stroke-width="6.000000"
	d="
M169.000000,198.000000 
	C169.572403,201.912094 168.778152,205.705353 168.000000,209.500000 
"/>
<path fill="none" opacity="1.000000" stroke="#000000" stroke-linecap="round" stroke-linejoin="round" stroke-width="4.000000"
	d="
M151.000000,107.500000 
	C152.326248,110.933907 153.250809,114.710983 158.536057,113.119766 
	C159.620544,112.793259 161.379715,113.723022 162.459061,114.553215 
	C165.406448,116.820244 167.960922,116.208061 170.500000,114.000000 
"/>
<path fill="none" opacity="1.000000" stroke="#000000" stroke-linecap="round" stroke-linejoin="round" stroke-width="5.000000"
	d="
M178.000000,228.500000 
	C182.075623,234.909134 182.479675,242.454697 184.500000,249.500000 
"/>
<path fill="none" opacity="1.000000" stroke="#000000" stroke-linecap="round" stroke-linejoin="round" stroke-width="4.000000"
	d="
M212.500000,232.500000 
	C214.598480,237.176056 219.377167,239.299515 222.500000,243.000000 
"/>
<path fill="none" opacity="1.000000" stroke="#000000" stroke-linecap="round" stroke-linejoin="round" stroke-width="4.000000"
	d="
M136.500000,241.500000 
	C132.619904,243.052658 129.291519,245.496552 126.000000,248.000000 
"/>
<path fill="none" opacity="1.000000" stroke="#000000" stroke-linecap="round" stroke-linejoin="round" stroke-width="4.000000"
	d="
M117.000000,438.000000 
	C120.162880,440.249237 124.184334,438.892456 127.500000,440.500000 
"/>
<path fill="none" opacity="1.000000" stroke="#000000" stroke-linecap="round" stroke-linejoin="round" stroke-width="3.000000"
	d="
M161.000000,358.500000 
	C157.098572,356.189972 153.990494,359.433411 150.500000,360.000000 
"/>
<path fill="none" opacity="1.000000" stroke="#000000" stroke-linecap="round" stroke-linejoin="round" stroke-width="4.000000"
	d="
M141.500000,328.500000 
	C141.333328,331.833344 141.166672,335.166656 141.000000,338.500000 
"/>
<path fill="none" opacity="1.000000" stroke="#000000" stroke-linecap="round" stroke-linejoin="round" stroke-width="5.000000"
	d="
M219.500000,382.500000 
	C223.286392,388.272034 227.900467,392.650085 236.457703,391.271332 
	C234.491592,395.793762 233.040756,399.698151 238.000000,402.000000 
"/>
<path fill="none" opacity="1.000000" stroke="#000000" stroke-linecap="round" stroke-linejoin="round" stroke-width="3.000000"
	d="
M237.500000,232.000000 
	C234.071930,232.193024 230.486740,231.600357 227.500000,234.000000 
"/>
<path fill="none" opacity="1.000000" stroke="#000000" stroke-linecap="round" stroke-linejoin="round" stroke-width="5.000000"
	d="
M179.500000,420.500000 
	C175.002426,419.637939 172.500717,422.568024 170.000000,425.500000 
"/>
<path fill="none" opacity="1.000000" stroke="#000000" stroke-linecap="round" stroke-linejoin="round" stroke-width="6.000000"
	d="
M127.000000,412.500000 
	C126.929367,415.947754 128.403152,417.928711 131.984329,418.585449 
	C133.905853,418.937836 135.666656,420.166687 137.500000,421.000000 
"/>
<path fill="none" opacity="1.000000" stroke="#000000" stroke-linecap="round" stroke-linejoin="round" stroke-width="5.000000"
	d="
M207.500000,197.500000 
	C204.333328,197.833328 201.166672,198.166656 198.000000,198.500000 
"/>
<path fill="none" opacity="1.000000" stroke="#000000" stroke-linecap="round" stroke-linejoin="round" stroke-width="3.000000"
	d="
M226.000000,153.000000 
	C228.763031,155.583969 232.217972,154.881332 235.500000,155.000000 
"/>
<path fill="none" opacity="1.000000" stroke="#000000" stroke-linecap="round" stroke-linejoin="round" stroke-width="3.000000"
	d="
M193.500000,218.500000 
	C197.415375,218.835052 200.117737,220.787460 201.500000,224.500000 
"/>
<path fill="none" opacity="1.000000" stroke="#000000" stroke-linecap="round" stroke-linejoin="round" stroke-width="3.000000"
	d="
M185.500000,347.000000 
	C182.578857,344.724152 180.949203,340.660065 176.500000,340.500000 
"/>
<path fill="none" opacity="1.000000" stroke="#000000" stroke-linecap="round" stroke-linejoin="round" stroke-width="3.000000"
	d="
M247.500000,331.000000 
	C244.264145,330.707550 241.378479,329.907471 238.386993,328.197723 
	C234.869278,326.187225 230.500000,325.666687 226.500000,324.500000 
"/>
<path fill="none" opacity="1.000000" stroke="#000000" stroke-linecap="round" stroke-linejoin="round" stroke-width="4.000000"
	d="
M162.500000,306.500000 
	C165.166672,307.166656 167.844650,307.791901 170.495636,308.515961 
	C172.025101,308.933655 171.198654,307.198639 172.000000,307.000000 
"/>
<path fill="none" opacity="1.000000" stroke="#000000" stroke-linecap="round" stroke-linejoin="round" stroke-width="4.000000"
	d="
M218.500000,169.500000 
	C214.500000,170.666656 210.500000,171.833328 206.500000,173.000000 
"/>
<path fill="none" opacity="1.000000" stroke="#000000" stroke-linecap="round" stroke-linejoin="round" stroke-width="6.000000"
	d="
M270.500000,435.500000 
	C268.517059,441.447968 270.744843,444.928864 278.500000,448.000000 
"/>
<path fill="none" opacity="1.000000" stroke="#000000" stroke-linecap="round" stroke-linejoin="round" stroke-width="6.000000"
	d="
M110.500000,440.000000 
	C110.637230,441.988220 109.830116,443.840027 108.447678,444.933868 
	C104.285103,448.227509 104.044930,452.884644 103.500000,457.500000 
"/>
<path fill="none" opacity="1.000000" stroke="#000000" stroke-linecap="round" stroke-linejoin="round" stroke-width="8.000000"
	d="
M129.000000,299.000000 
	C125.687714,295.901215 122.126869,294.381866 118.008568,297.511261 
	C114.477257,300.194672 111.748070,296.059998 108.500000,296.500000 
"/>
<path fill="none" opacity="1.000000" stroke="#000000" stroke-linecap="round" stroke-linejoin="round" stroke-width="3.000000"
	d="
M143.500000,249.500000 
	C143.303482,252.321396 145.021683,255.908676 140.500000,257.000000 
"/>
<path fill="none" opacity="1.000000" stroke="#000000" stroke-linecap="round" stroke-linejoin="round" stroke-width="3.000000"
	d="
M239.500000,252.000000 
	C236.666672,250.333328 233.833328,248.666656 231.000000,247.000000 
"/>
<path fill="none" opacity="1.000000" stroke="#000000" stroke-linecap="round" stroke-linejoin="round" stroke-width="3.000000"
	d="
M174.000000,270.000000 
	C171.936157,272.471405 169.846298,274.935181 171.500000,278.500000 
"/>
<path fill="none" opacity="1.000000" stroke="#000000" stroke-linecap="round" stroke-linejoin="round" stroke-width="3.000000"
	d="
M111.999992,243.500000 
	C113.666664,246.000000 115.333328,248.500000 116.999992,251.000000 
"/>
<path fill="none" opacity="1.000000" stroke="#000000" stroke-linecap="round" stroke-linejoin="round" stroke-width="3.000000"
	d="
M115.500000,395.500000 
	C112.303566,397.000397 109.861000,399.053619 110.000000,403.000000 
"/>
<path fill="none" opacity="1.000000" stroke="#000000" stroke-linecap="round" stroke-linejoin="round" stroke-width="4.000000"
	d="
M250.500000,440.000000 
	C250.315613,442.850861 251.101196,445.815826 249.500000,448.500000 
"/>
<path fill="none" opacity="1.000000" stroke="#000000" stroke-linecap="round" stroke-linejoin="round" stroke-width="3.000000"
	d="
M226.500000,391.000000 
	C226.725693,397.555328 229.495651,402.531433 235.500000,405.500000 
"/>
<path fill="none" opacity="1.000000" stroke="#000000" stroke-linecap="round" stroke-linejoin="round" stroke-width="3.000000"
	d="
M198.500000,139.500000 
	C201.413177,140.510147 204.031082,141.790939 204.000000,145.500000 
"/>
<path fill="none" opacity="1.000000" stroke="#000000" stroke-linecap="round" stroke-linejoin="round" stroke-width="4.000000"
	d="
M150.500000,275.000000 
	C148.078827,273.650940 145.676559,272.018311 143.000000,274.500000 
"/>
<path fill="none" opacity="1.000000" stroke="#000000" stroke-linecap="round" stroke-linejoin="round" stroke-width="5.000000"
	d="
M141.500000,602.500000 
	C143.500000,606.833313 145.500000,611.166687 147.500000,615.500000 
"/>
<path fill="none" opacity="1.000000" stroke="#000000" stroke-linecap="round" stroke-linejoin="round" stroke-width="3.000000"
	d="
M240.500000,385.000000 
	C238.090134,385.202454 236.118805,382.335022 233.500000,384.000000 
"/>
<path fill="none" opacity="1.000000" stroke="#000000" stroke-linecap="round" stroke-linejoin="round" stroke-width="3.000000"
	d="
M170.500000,280.500000 
	C171.243057,283.099701 169.320206,285.128143 169.000000,287.500000 
"/>
<path fill="none" opacity="1.000000" stroke="#000000" stroke-linecap="round" stroke-linejoin="round" stroke-width="3.000000"
	d="
M216.500000,428.000000 
	C218.575073,430.028229 220.788513,431.862732 223.500000,433.000000 
"/>
<path fill="none" opacity="1.000000" stroke="#000000" stroke-linecap="round" stroke-linejoin="round" stroke-width="3.000000"
	d="
M158.500000,267.000000 
	C156.557312,264.966095 153.975616,265.168671 151.500000,265.000000 
"/>
<path fill="none" opacity="1.000000" stroke="#000000" stroke-linecap="round" stroke-linejoin="round" stroke-width="4.000000"
	d="
M204.000000,398.000000 
	C200.378769,400.651459 195.594376,397.719666 192.000000,400.500000 
"/>
<path fill="none" opacity="1.000000" stroke="#000000" stroke-linecap="round" stroke-linejoin="round" stroke-width="3.000000"
	d="
M168.000000,243.500000 
	C167.718994,246.016632 165.014801,247.119751 164.500000,249.500000 
"/>
<path fill="none" opacity="1.000000" stroke="#000000" stroke-linecap="round" stroke-linejoin="round" stroke-width="3.000000"
	d="
M298.500000,433.000000 
	C296.479797,433.212128 294.282867,432.363800 292.500000,434.000000 
"/>
<path fill="none" opacity="1.000000" stroke="#000000" stroke-linecap="round" stroke-linejoin="round" stroke-width="2.000000"
	d="
M124.499992,405.000000 
	C123.833328,406.166656 123.166656,407.333344 122.499992,408.500000 
"/>
<path fill="none" opacity="1.000000" stroke="#000000" stroke-linecap="round" stroke-linejoin="round" stroke-width="2.000000"
	d="
M150.500000,208.500000 
	C149.750641,210.170547 148.639359,209.669449 147.500000,209.000000 
"/>
</svg>